<svg xmlns="http://www.w3.org/2000/svg" viewBox="0 0 433.58 612"><defs><style>.cls-1{fill:#e44d26;}.cls-2{fill:#f16529;}.cls-3{fill:#ebebeb;}.cls-4{fill:#fff;}</style></defs><title>HTML</title><g id="Layer_2" data-name="Layer 2"><g id="Layer_1-2" data-name="Layer 1"><polygon class="cls-1" points="39.458 562.845 0 120.273 433.58 120.273 394.079 562.775 216.524 612 39.458 562.845"/><polygon class="cls-2" points="216.79 574.375 360.263 534.599 394.018 156.459 216.79 156.459 216.79 574.375"/><polygon class="cls-3" points="216.79 320.604 144.964 320.604 140.003 265.02 216.79 265.02 216.79 210.74 216.601 210.74 80.682 210.74 81.981 225.302 95.322 374.882 216.79 374.882 216.79 320.604"/><polygon class="cls-3" points="216.79 461.573 216.552 461.637 156.1 445.314 152.235 402.023 122.861 402.023 97.747 402.023 105.351 487.25 216.54 518.116 216.79 518.047 216.79 461.573"/><path d="M40.3398,0h27.585V27.25292H93.1572V0h27.58589V82.52932H93.1582V54.89362H67.9257v27.6357H40.3418V0Z"/><path d="M157.01659,27.36772h-24.2832V0h76.165V27.36772h-24.2949v55.1616h-27.585V27.36772Z"/><path d="M220.98629,0H249.749l17.69329,28.998L285.11709,0h28.7735V82.52932h-27.4707V41.623l-18.9776,29.34382h-.4746L247.97649,41.623V82.52932h-26.9902Z"/><path d="M327.61909,0h27.5928V55.25h38.791V82.52932h-66.3838Z"/><polygon class="cls-4" points="216.601 320.604 216.601 374.882 283.441 374.882 277.141 445.279 216.601 461.619 216.601 518.09 327.878 487.25 328.694 478.08 341.45 335.179 342.774 320.604 328.147 320.604 216.601 320.604"/><polygon class="cls-4" points="216.601 210.74 216.601 244.452 216.601 264.887 216.601 265.02 347.539 265.02 347.539 265.02 347.713 265.02 348.802 252.819 351.275 225.302 352.573 210.74 216.601 210.74"/></g></g></svg>