<svg xmlns="http://www.w3.org/2000/svg" viewBox="0 0 365 362.958"><defs><style>.cls-1{fill:#8a4182;}</style></defs><title>Jasmine</title><g id="Layer_2" data-name="Layer 2"><g id="Layer_1-2" data-name="Layer 1"><polyline class="cls-1" points="168.365 150.289 196.636 150.289 203.66 140.673 203.66 65.366 161.345 65.366 161.345 140.681 168.365 150.289"/><polyline class="cls-1" points="150.142 183.877 158.876 157.144 151.851 147.531 79.82 124.261 66.746 164.273 138.785 187.548 150.142 183.877"/><polyline class="cls-1" points="176.638 211.492 153.769 194.967 142.402 198.641 97.886 259.568 132.117 284.297 176.638 223.367 176.638 211.492"/><polyline class="cls-1" points="211.237 194.964 188.362 211.487 188.367 223.37 232.884 284.297 267.117 259.568 222.593 198.636 211.237 194.964"/><polyline class="cls-1" points="206.119 157.139 214.857 183.874 226.223 187.543 298.255 164.273 285.178 124.258 213.143 147.534 206.119 157.139"/><path class="cls-1" d="M182.50919,0C81.8744,0,0,81.3982,0,181.4494,0,281.5371,81.8744,362.958,182.50919,362.958,283.13419,362.958,365,281.5371,365,181.4494,365,81.3982,283.13419,0,182.50919,0Zm0,36.7407c80.365,0,145.5362,64.7798,145.5362,144.7087,0,79.9548-65.1712,144.763-145.5362,144.763-80.39219,0-145.55479-64.8082-145.55479-144.763C36.9544,101.5205,102.117,36.7407,182.50919,36.7407Z"/><polyline class="cls-1" points="293.046 221.782 238.29 204.089 241.91 192.999 296.666 210.692 293.046 221.782"/><polyline class="cls-1" points="223.211 134.373 213.722 127.52 247.561 81.205 257.05 88.057 223.211 134.373"/><polyline class="cls-1" points="142.377 133.952 108.543 87.634 118.033 80.781 151.867 127.096 142.377 133.952"/><polyline class="cls-1" points="71.732 221.09 68.11 210 122.86 192.315 126.482 203.405 71.732 221.09"/><rect class="cls-1" x="176.277" y="239.8956" width="11.72709" height="57.2501"/></g></g></svg>