<svg xmlns="http://www.w3.org/2000/svg" viewBox="0 0 365.00001 82.94758"><defs><style>.cls-1{fill:#1a1918;}.cls-2{fill:#21609b;}</style></defs><title>jQuery</title><g id="Layer_2" data-name="Layer 2"><g id="Layer_1-2" data-name="Layer 1"><path class="cls-1" d="M349.6743,6.13047,365,6.21467S336.5065,44.824,334.1802,47.97067a17.92392,17.92392,0,0,0-2.4857,3.48c-1.47149,3.4246-2.9824,10.9362-2.9824,10.9362l-14.0226.0695s2.1818-7.8295,2.092-12c-.0793-3.6436-1.939-7.2822-2.98249-10.9363-1.054-3.6982-2.48561-10.9362-2.48561-10.9362h14.4162l1.9881,7.9538,21.9566-30.4072"/><path class="cls-1" d="M320.6545,14.273c2.8281,1.7053,4.56351,11.1102,4.56351,11.1102s-14.79861.2183-22.852.2183H295.4066l-8.4505,36.7854H274.0318s8.0428-39.9763,9.9418-47.2241c.6161-2.346,4.2155-1.9439,10.2948-1.9439h9.7081c6.2688,0,13.5959-.8,16.678,1.0541"/><path class="cls-1" d="M260.4858,32.18817a7.74557,7.74557,0,0,0-1.3671-5.0955c-1.5109-2.3312-2.9074-2.873-6.8842-2.9972-11.2296-.353-11.0113,7.9685-11.0113,7.9685Zm12.179-9.5292c1.6456,5.9355-1.4913,19.8836-1.4913,19.8836s-16.3797-.2737-25.3517,0c-2.7895.0849-6.1291-.3031-6.9593.9944-1.16849,1.819.4266,4.6183,1.7789,5.8007,1.5565,1.3621,4.5881,1.5165,5.6772,1.6555,7.2822.9249,22.5237.2386,22.5237.2386l-2.64,11.6913s-21.5384,1.0793-32.3111-1.4912a10.96632,10.96632,0,0,1-5.4681-2.9825c-.3677-.3972-.6863-.939-1.0344-1.4064a13.05286,13.05286,0,0,1-1.4512-2.5705c-2.4604-6.5565.2884-19.118,2.9824-25.8486.313-.7803.706-1.7691,1.1194-2.6098.5164-1.0484.95371-2.2316,1.3663-2.8583.2779-.4322.6217-.7108.9102-1.1186a16.61843,16.61843,0,0,1,1.0786-1.3663,20.44084,20.44084,0,0,1,3.4793-2.9824c4.4884-3.3608,12.61131-5.9706,22.3692-4.9713,3.6737.3775,9.2218,1.6898,11.9306,5.4681C271.8991,19.19437,272.257,21.19717,272.6648,22.659Z"/><path class="cls-1" d="M213.3858,13.174l12.532-.0743s-6.9839,33.1314-10.5432,49.2872H200.9584c-10.0758,0-19.0485,1.2478-22.8661-5.9656-3.7032-7.0036-.1691-18.5215,1.4912-26.3461,1.1734-5.5376,3.6443-16.8563,3.6443-16.8563l12.9839-.1192s-3.6688,17.6218-5.1951,26.4204c-.5467,3.1516-1.6744,6.1194-.4969,8.4506,1.1186,2.2176,2.68431,2.3762,7.4562,2.4857,1.5116.035,6.4625,0,6.4625,0l8.9474-37.2824"/><path class="cls-1" d="M154.7287,37.03447c1.31231-4.6625,3.226-9.7179,2.9824-13.9187-.26309-4.4933-4.0309-8.5846-6.4617-9.4442a16.558,16.558,0,0,0-16.9012,3.9762c-3.5249,3.8182-4.7179,8.2772-5.9656,14.4162-.9292,4.5579-1.6899,9.3698,0,12.9243,2.9923,6.2835,12.3228,4.9115,22.3692,4.9712C152.243,45.963,153.476,41.47377,154.7287,37.03447Zm17.3987-18.3924c1.4315,10.4092-4.0611,21.8977-7.8443,31.8886,3.8576.3481,7.23791-.054,7.4815.2337.2533.3734-2.5853,11.9257-3.5748,11.9552-3.06179.08-13.2071.1642-17.438.1642-13.8043,0-26.7187.8996-33.3047-5.9649a21.64584,21.64584,0,0,1-4.9713-10.9363c-.746-5.6175.1888-11.8014,1.49121-16.9011a51.15777,51.15777,0,0,1,4.97129-12.925C124.739,6.03077,134.8303-1.485,151.7462.24977a31.52226,31.52226,0,0,1,10.9362,3.4793c.2035.12.9151.6863,1.07861.7859C167.7379,7.04557,171.3617,13.08487,172.1274,18.64207Z"/><path class="cls-1" d="M111.0491,13.23367c-.83509,3.8028-1.67009,8.113-2.5502,11.8709H94.58031c1.0786-4.1656,1.9038-8.3067,2.9824-11.9306,4.4541,0,8.59519.0597,13.48639.0597"/><path class="cls-1" d="M94.08341,28.58387H107.5045c-1.7543,9.7138-5.22869,25.3819-7.953,36.288-1.7052,6.8253-2.8435,11.8064-7.4569,15.4099-.4126.3235-.6505.1698-.9936.4975-.8506.8105-4.7825,1.7502-6.9594,1.9881-3.5396.3832-7.5411.0498-11.8906-.0393,1.1383-4.1607,2.426-9.1565,3.44-12.885,10.6029,1.2828,10.8717-8.739,12.9243-18.3924,1.1881-5.5775,4.7874-20.6295,5.4681-22.8668"/><path class="cls-2" d="M62.76611,53.93637l-.2878.7452c-4.9017,9.5439-13.586,15.4001-25.9734,15.6584a36.30688,36.30688,0,0,1-14.9131-2.9825A38.521,38.521,0,0,1,3.697,50.45637c-5.1257-9.9271-6.0499-23.7363,4.6077-34.0508.1642,0-1.2926,2.2365-1.1284,2.2365l-.2933.9544c-7.6801,24.0444,15.9811,44.6494,38.9819,42.2929a30.2117,30.2117,0,0,0,16.9012-7.953"/><path class="cls-2" d="M48.84741,43.99387a22.00112,22.00112,0,0,0,15.4099-6.4618c-3.1312,7.9488-12.198,13.0583-24.3573,11.433-10.1804-1.3621-19.8787-11.6071-20.878-21.8724-.7306-7.4709,1.8737-11.9299,6.1642-17.3383a18.14491,18.14491,0,0,0-2.1874,6.4021c-1.6302,16.1608,12.9096,27.7531,25.8486,27.8374"/><path class="cls-2" d="M63.67621,23.92147c-.8996,2.0631-6.0793,5.96-8.3663,6.447-9.0569,1.9292-14.8576-2.3656-17.8956-7.2526a22.38094,22.38094,0,0,1-1.4365-3.2309c-1.1782-4.0064-.6364-10.0661,2.8787-13.2029a16.50405,16.50405,0,0,0-.6562,8.699,19.31075,19.31075,0,0,0,2.3958,5.2344c1.8737,2.7242,3.0618,3.386,5.4681,4.8323A14.54331,14.54331,0,0,0,48.813,26.765c2.2814.6709,7.0983,2.4407,14.8632-2.8435"/></g></g></svg>