<svg xmlns="http://www.w3.org/2000/svg" viewBox="0 0 365 365"><defs><style>.cls-1{fill:#007acc;}.cls-2{fill:#fff;}</style></defs><title>Typescript</title><g id="Layer_2" data-name="Layer 2"><g id="Layer_1-2" data-name="Layer 1"><polygon class="cls-1" points="0 182.5 0 365 182.5 365 365 365 365 182.5 365 0 182.5 0 0 0 0 182.5"/><path class="cls-2" d="M80.7151,183.7107l-.1158,14.9476h47.5079v134.992h33.60319V198.6583h47.5079v-14.658c0-8.1111-.1738-14.8896-.4056-15.0635-.1738-.2317-29.0841-.3476-64.13569-.2896l-63.7881.1738Z"/><path class="cls-2" d="M294.51889,168.3967a45.43233,45.43233,0,0,1,22.8269,13.1516c3.3603,3.592,8.3429,10.1389,8.7484,11.7031.1159.4635-15.7587,11.1239-25.37619,17.0913-.34761.2317-1.73811-1.2746-3.30231-3.5921-4.6929-6.8365-9.6175-9.7912-17.1493-10.3127-11.0658-.7532-18.192,5.0405-18.1341,14.7159a13.38436,13.38436,0,0,0,1.5643,6.8365c2.4333,5.0405,6.95241,8.0532,21.1468,14.1945,26.1294,11.2397,37.3112,18.6555,44.2635,29.2,7.7635,11.7611,9.5016,30.5325,4.2294,44.4952-5.7937,15.1794-20.1619,25.492-40.3818,28.9103-6.2571,1.1008-21.0888.927-27.80949-.2897-14.65791-2.6071-28.56271-9.8491-37.13731-19.3507-3.3603-3.708-9.9071-13.3834-9.5016-14.0786a27.25686,27.25686,0,0,1,3.3604-2.1437c1.6222-.927,7.76351-4.4611,13.5571-7.8214l10.4865-6.0834,2.2016,3.2445c3.0706,4.6929,9.79131,11.1238,13.8468,13.2675,11.6453,6.1412,27.6357,5.2722,35.5151-1.7961a13.43568,13.43568,0,0,0,4.7508-10.9499c0-4.2294-.5215-6.0834-2.7231-9.2699-2.8388-4.0556-8.6324-7.4739-25.0864-14.6-18.8294-8.1111-26.9405-13.1516-34.3564-21.1469a48.131,48.131,0,0,1-10.023-18.2499c-1.39049-5.1564-1.7381-18.0762-.6373-23.2905,3.88181-18.1921,17.6127-30.8802,37.427-34.646C273.25609,166.3689,288.20369,166.8324,294.51889,168.3967Z"/></g></g></svg>