<svg xmlns="http://www.w3.org/2000/svg" xmlns:xlink="http://www.w3.org/1999/xlink" viewBox="0 0 499.36223 486.87901"><defs><style>.cls-1{fill:url(#radial-gradient);}.cls-2{fill:#d8a1ff;}</style><radialGradient id="radial-gradient" cx="-640.55097" cy="616.42703" r="0.63754" gradientTransform="matrix(545.67358, 0, 0, -528.31128, 349703.44906, 325786.02523)" gradientUnits="userSpaceOnUse"><stop offset="0" stop-color="#442f55" stop-opacity="0.98"/><stop offset="1" stop-color="#12002c"/></radialGradient></defs><title>after-effect</title><g id="Layer_2" data-name="Layer 2"><g id="Layer_1-2" data-name="Layer 1"><path class="cls-1" d="M20.80648,20.80647H478.55572v445.2652H20.80648Z"/><path class="cls-2" d="M20.80648,20.80647H478.55572v445.2652H20.80648ZM0,486.879H499.36223V0H0ZM353.29826,234.70058c10.61085,0,14.35642,0,15.39661-.41608,0-1.45627.41609-2.4973.41609-3.53752,0-11.23583-5.40988-32.04229-27.0485-32.04229-19.97517,0-28.50479,17.477-30.586,35.99589Zm-42.23708,28.50477c.41608,28.08953,13.73229,47.02367,45.3585,47.02367,12.276,0,22.88686-1.66348,33.91548-6.44922,1.45627-.62411,2.49731-.41608,2.49731,1.45627V331.2444a4.40638,4.40638,0,0,1-2.08041,4.16163c-11.02777,5.409-24.76091,7.90634-41.82184,7.90634-54.92918,0-75.52846-40.57276-75.52846-85.72323,0-49.10407,25.385-89.26075,70.11943-89.26075,45.35849,0,61.172,38.07627,61.172,69.0784,0,9.98758-.62411,18.102-1.66432,22.05555a3.09422,3.09422,0,0,1-2.70536,2.70536c-4.16163.6241-16.43765,1.45542-34.74765,1.45542H311.06118v-.41777ZM199.53769,241.98281c-5.826-23.09577-19.97516-73.448-25.177-97.792h-.41608c-4.36883,24.344-15.81353,65.54088-24.344,97.792Zm-58.46837,33.70743-16.4368,62.21223c-.41608,1.66345-1.04021,2.28846-3.12143,2.28846h-30.586c-2.0804,0-2.49731-.62414-2.0804-3.12057l59.09081-206.61188c1.0402-3.7447,1.66431-6.65811,2.08039-17.06093,0-1.45627.62412-2.08041,1.66431-2.08041h43.6942c1.45627,0,2.08039.41608,2.49732,2.08041l66.165,224.08886c.41609,1.66346,0,2.70452-1.66432,2.70452H228.04165c-1.66433,0-2.70536-.62414-3.12144-2.07956l-17.06177-62.42028H141.06932Z"/></g></g></svg>