<svg xmlns="http://www.w3.org/2000/svg" viewBox="0 0 365 142.3358"><defs><style>.cls-1{fill:#cb3837;}.cls-2{fill:#fff;}</style></defs><title>NPM</title><g id="Layer_2" data-name="Layer 2"><g id="Layer_1-2" data-name="Layer 1"><polygon class="cls-1" points="0 0 0 121.901 101.467 121.901 101.467 142.336 182.5 142.336 182.5 121.901 365 121.901 365 0 0 0"/><polygon class="cls-2" points="60.598 20.434 20.434 20.434 20.434 40.869 20.434 101.467 60.598 101.467 60.598 40.869 81.033 40.869 81.033 101.467 101.467 101.467 101.467 40.869 101.467 20.434 60.598 20.434"/><path class="cls-2" d="M121.9016,20.4343V121.9015h40.86869V101.4671h40.164V20.4343ZM182.5,81.0328H162.77029V40.8687H182.5Z"/><polygon class="cls-2" points="263.533 20.434 223.369 20.434 223.369 40.869 223.369 101.467 263.533 101.467 263.533 40.869 283.967 40.869 283.967 101.467 304.401 101.467 304.401 40.869 324.836 40.869 324.836 101.467 345.27 101.467 345.27 40.869 345.27 21.844 345.27 20.434 263.533 20.434"/></g></g></svg>