<svg xmlns="http://www.w3.org/2000/svg" viewBox="0 0 1000.00006 872.87492"><defs><style>.cls-1{fill:#32de84;}</style></defs><title>Android</title><g id="Layer_2" data-name="Layer 2"><g id="svg8"><g id="layer1"><g id="g80302"><path id="path825" d="M69.742,721.85365C35.35706,721.85365,0,749.40729,0,797.63632c0,44.09071,31.08708,75.23327,69.742,75.23327,31.90774,0,46.12841-21.4168,46.12841-21.4168v9.33546c0,4.41247,4.17184,9.33547,9.33547,9.33547h23.0642V725.14845H115.87025v18.39647s-14.34-21.69142-46.12856-21.69142Zm5.77139,29.64451c28.30616,0,43.15425,24.89417,43.15425,46.12734,0,23.65046-17.62931,46.11133-43.09421,46.11133-21.28711,0-42.6105-17.24024-42.6105-46.42344C32.96292,770.97024,51.31307,751.49816,75.51338,751.49816Z"/><path id="path829" d="M193.30046,870.12387a9.06748,9.06748,0,0,1-9.33547-9.33546V725.14876h32.39983v17.9405c7.34182-11.03545,21.68532-21.27965,43.7015-21.27965,35.98417,0,55.14528,28.685,55.14528,55.50822v92.806H292.69648a9.92313,9.92313,0,0,1-9.88462-9.8847V784.45666c0-14.8682-9.10962-32.92513-30.17774-32.92513-22.733,0-36.26946,21.48432-36.26946,41.71152v76.88082Z"/><path id="path833" d="M409.66505,721.85365c-34.38486,0-69.74184,27.55364-69.74184,75.78267,0,44.09071,31.087,75.23327,69.74184,75.23327,31.90766,0,46.12855-21.4168,46.12855-21.4168v9.33546c0,4.41247,4.17184,9.33547,9.33555,9.33547h23.0642V652.66089H455.7936v90.884s-14.34-21.69142-46.12855-21.69142Zm5.77153,29.64451c28.30617,0,43.15425,24.89417,43.15425,46.12734,0,23.65046-17.62938,46.11133-43.0942,46.11133-21.28712,0-42.6105-17.24024-42.6105-46.42344C372.88613,770.97024,391.23619,751.49816,415.43658,751.49816Z"/><path id="path835" d="M533.22359,870.12387a9.06754,9.06754,0,0,1-9.33554-9.33546V725.14876h32.39974v24.16252c5.57678-13.536,17.611-25.80992,38.98957-25.80992a67.62765,67.62765,0,0,1,11.53218,1.09831v33.498a46.63477,46.63477,0,0,0-15.37621-2.74572c-22.733,0-35.14554,21.48432-35.14554,41.71152V870.124Z"/><path id="path837" d="M803.4048,870.12387a9.06754,9.06754,0,0,1-9.33554-9.33546V725.14876H826.469V870.124Z"/><path id="path839" d="M921.47183,721.85365c-34.385,0-69.74191,27.55364-69.74191,75.78267,0,44.09071,31.087,75.23327,69.74191,75.23327,31.90759,0,46.12845-21.4168,46.12845-21.4168v9.33546c0,4.41247,4.17184,9.33547,9.33554,9.33547h23.06424V652.66089H967.60028v90.884S953.2604,721.8535,921.47183,721.8535Zm5.77143,29.64451c28.30612,0,43.15417,24.89417,43.15417,46.12734,0,23.65046-17.62923,46.11133-43.09417,46.11133-21.28711,0-42.61049-17.24024-42.61049-46.42344C884.69277,770.97024,903.043,751.49816,927.24326,751.49816Z"/><circle id="path841" cx="810.01413" cy="672.44996" r="21.4293"/><path id="path843" d="M692.25586,721.80534c-36.01031,0-75.57343,26.87989-75.57343,75.57343,0,44.37234,33.69847,75.49615,75.49509,75.49615,51.51012,0,76.662-41.4087,76.662-75.21514,0-41.484-32.38763-75.85444-76.58373-75.85444Zm.11787,30.25683c24.9021,0,43.4771,20.07039,43.4771,45.40773,0,25.7767-19.71827,45.66741-43.40311,45.66741-21.98653,0-43.35914-17.8925-43.35914-45.234,0-27.79731,20.32755-45.841,43.28515-45.841Z"/></g><path id="path80319" class="cls-1" d="M744.0611,168.84405,826.958,25.24313a16.84229,16.84229,0,0,0-6.09213-22.95445,16.62094,16.62094,0,0,0-22.84557,6.09214L714.03549,153.83114C649.959,124.567,577.83226,108.24866,500.26591,108.24866s-149.69306,16.31825-213.76953,45.58248L202.51162,8.38082A16.79316,16.79316,0,0,0,173.465,25.24313L256.362,168.84405C113.41377,246.30164,16.59194,390.99035.6,560.37414H999.93179C983.94,390.99035,887.11807,246.30164,744.0611,168.84405ZM270.8308,420.03682a41.88357,41.88357,0,1,1,41.88363-41.88357A41.90166,41.90166,0,0,1,270.8308,420.03682Zm458.76145,0a41.88357,41.88357,0,1,1,41.88357-41.88357A41.90177,41.90177,0,0,1,729.59225,420.03682Z"/></g></g></g></svg>