<svg xmlns="http://www.w3.org/2000/svg" xmlns:xlink="http://www.w3.org/1999/xlink" viewBox="0 0 365 326.32475"><defs><style>.cls-1{fill:url(#linear-gradient);}</style><linearGradient id="linear-gradient" x1="-69.52048" y1="-89.32882" x2="-60.3955" y2="-89.32882" gradientTransform="translate(-3012.0504 2486.17055) rotate(90) scale(35.7617)" gradientUnits="userSpaceOnUse"><stop offset="0" stop-color="#f88a36"/><stop offset="1" stop-color="#fd2020"/></linearGradient></defs><title>Swift</title><g id="Layer_2" data-name="Layer 2"><g id="Layer_1-2" data-name="Layer 1"><path class="cls-1" d="M336.12769,224.7666C356.43989,144.2934,307.50269,49.9502,224.39239,0c36.938,49.9493,51.7112,109.1439,38.7812,161.868a80.89108,80.89108,0,0,1-4.6174,13.8791c-15.9138-11.0139-89.5707-56.4197-178.21989-146.1456-2.7694-2.7768,48.0156,72.1512,104.34419,131.3449C157.90769,145.2242,83.1103,91.5692,36.0162,48.0978c5.538,9.251,12.9247,18.501,20.3123,28.6762,39.7028,50.8754,90.49239,111.9179,152.35969,159.094-43.3983,26.8275-104.34409,28.6707-166.21139,0C26.779,229.3892,13.8518,220.1456,0,209.9713c25.8556,40.6974,65.563,76.7684,113.5785,97.1171,57.25019,24.9751,115.88739,25.2488,163.44669-3.6956,20.3122-10.1743,60.94581-21.2795,83.1103,21.2704,4.6173,12.0268,15.695-43.4713-25.8601-94.3432.9217-1.8524.9217-3.7046,1.8523-5.557Z"/></g></g></svg>