<svg xmlns="http://www.w3.org/2000/svg" viewBox="0 0 365 247.88737"><defs><style>.cls-1,.cls-4{fill:#6a7e91;}.cls-2,.cls-3{fill:#fa8a3b;}.cls-3,.cls-4{fill-rule:evenodd;}</style></defs><title>MySQL</title><g id="Layer_2" data-name="Layer 2"><g id="Layer_1-2" data-name="Layer 1"><path class="cls-1" d="M87.7546,225.82507H73.6709q-.7446-35.655-4.1135-67.0628h-.1229l-21.4428,67.0628H37.2683l-21.3135-67.0628h-.1252q-2.37045,30.1662-2.989,67.0628H0q1.2441-44.87625,6.2306-84.1439H23.685l20.3184,61.8272h.1253l20.4436-61.8272H81.2738q5.486,45.9933,6.4808,84.1439"/><path class="cls-1" d="M148.83489,163.74547q-8.60083,46.6743-22.68789,67.837-10.97505,16.30485-24.0584,16.3049a23.6895,23.6895,0,0,1-8.6-2.0939v-7.5011a40.80431,40.80431,0,0,0,5.8592.3735,14.16441,14.16441,0,0,0,9.8496-3.371q4.4832-4.10505,4.4844-9.2215,0-3.4941-3.4895-14.332l-15.4564-47.9959h13.8356l11.0925,35.8956q3.73905,12.2256,3.1164,17.0834a234.3843,234.3843,0,0,0,12.7176-52.979Z"/><polygon class="cls-2" points="336.313 225.825 296.299 225.825 296.299 141.681 309.764 141.681 309.764 215.475 336.313 215.475 336.313 225.825"/><path class="cls-3" d="M285.83069,227.85527l-15.4668-7.6264a29.00857,29.00857,0,0,0,3.8693-3.759q9.8484-11.5794,9.8516-34.2748,0-41.755-32.7835-41.7634-16.0791,0-25.0577,10.6006-9.85139,11.592-9.8473,34.1538,0,22.1886,8.7229,32.5355,7.9806,9.34545,24.06281,9.3489a38.78214,38.78214,0,0,0,11.01629-1.4788l20.14,11.7206Zm-50.111-18.8632q-5.1135-8.22555-5.1146-26.4216,0-31.7856,19.3213-31.7909,10.1001,0,14.8369,7.601,5.10735,8.2317,5.1105,26.1796,0,32.03715-19.3216,32.0411-10.09635,0-14.8325-7.6092"/><path class="cls-2" d="M210.52849,202.50277a22.33764,22.33764,0,0,1-7.8491,17.5777q-7.84695,6.84465-21.0587,6.852-12.3432,0-23.9333-7.8576l3.6149-7.2275q9.9723,4.98615,18.0698,4.9831,7.602,0,11.9028-3.3559a11.45608,11.45608,0,0,0,4.58011-9.3448c0-4.9979-3.48531-9.2681-9.877-12.8489-5.90381-3.2394-17.69861-10.0023-17.69861-10.0023-6.3917-4.6606-9.5949-9.6649-9.5949-17.9065q0-10.224,7.1618-16.5169,7.17525-6.30045,18.5132-6.3005a38.31846,38.31846,0,0,1,21.3111,6.239l-3.25,7.2211a41.27078,41.27078,0,0,0-16.1945-3.4854q-6.47535,0-9.9662,3.1226a10.41838,10.41838,0,0,0-3.77389,7.972c0,4.9833,3.55969,9.3065,10.13169,12.9575,5.9779,3.2414,18.0612,10.1337,18.0612,10.1337,6.5742,4.6543,9.8496,9.614,9.8496,17.7876"/><path class="cls-4" d="M353.20729,113.49457c-8.1375-.2037-14.4379.6089-19.7244,2.8468-1.5254.6089-3.9607.6089-4.1706,2.5416.8188.8124.9163,2.1319,1.6334,3.2562A23.73086,23.73086,0,0,0,336.23,128.34c2.13419,1.627,4.27039,3.2478,6.51049,4.6713,3.9607,2.4501,8.4366,3.867,12.2933,6.3089,2.2444,1.4213,4.4741,3.2497,6.7185,4.7792,1.11371.8127,1.8202,2.1363,3.24771,2.6392v-.3076c-.71491-.9122-.91651-2.2338-1.62291-3.2563-1.0162-1.0099-2.0343-1.9305-3.0527-2.9424a48.44737,48.44737,0,0,0-10.5707-10.2653c-3.2563-2.2422-10.37769-5.2927-11.693-9.0434l-.20569-.2079a40.85445,40.85445,0,0,0,7.01759-1.6377c3.4513-.9121,6.6037-.7064,10.1612-1.6185,1.62921-.4095,3.2563-.9209,4.8898-1.4213v-.9206c-1.8392-1.8267-3.15459-4.2705-5.0871-5.9973a136.14064,136.14064,0,0,0-16.7758-12.5054c-3.1565-2.0343-7.2232-3.3496-10.5792-5.0829-1.2134-.6108-3.2456-.9121-3.96049-1.9346-1.83081-2.2359-2.851-5.1804-4.17081-7.8278-2.94419-5.5856-5.7975-11.7841-8.3348-17.6912-1.8286-3.9627-2.9486-7.9243-5.1845-11.5868-10.4774-17.2869-21.8607-27.7528-39.3472-38.0233-3.7632-2.1395-8.2351-3.0527-13.0102-4.1708-2.5457-.1071-5.0851-.3043-7.6264-.404-1.6292-.7149-3.2584-2.6484-4.6797-3.5628-5.7976-3.6583-20.73639-11.5869-25.0088-1.1169-2.7448,6.6122,4.0667,13.1164,6.4065,16.4723,1.72691,2.3357,3.967,4.9833,5.1804,7.6232.7127,1.729.91651,3.5617,1.6314,5.3892,1.6248,4.4729,3.148,9.4562,5.2864,13.6267a48.06417,48.06417,0,0,0,3.757,6.2972c.8209,1.1255,2.2401,1.6271,2.5455,3.4633-1.4191,2.03-1.5295,5.0805-2.3419,7.624-3.6573,11.4895-2.236,25.7227,2.9508,34.1593,1.6229,2.5414,5.4902,8.1354,10.6769,5.9951,4.5736-1.8265,3.5576-7.6221,4.8792-12.7029.30321-1.2281.0997-2.0343.7084-2.8467v.2057c1.4213,2.8426,2.8489,5.5812,4.1705,8.4367,3.1546,4.9767,8.6405,10.1634,13.2206,13.6171,2.433,1.8371,4.36571,4.983,7.4161,6.1052v-.3076H282.445a11.18546,11.18546,0,0,0-2.33781-2.0302,50.012,50.012,0,0,1-5.2887-6.1011,130.1489,130.1489,0,0,1-11.3831-18.5045c-1.63139-3.1587-3.0505-6.6124-4.3743-9.7626-.6087-1.2135-.6087-3.0495-1.62709-3.6573-1.52951,2.234-3.75911,4.1686-4.87691,6.9052-1.9327,4.3763-2.13409,9.7646-2.85109,15.3587-.40521.106-.20171,0-.40521.2014-3.2499-.8125-4.368-4.1663-5.5921-7.0048-3.0483-7.2273-3.5616-18.8175-.9143-27.1545.70861-2.1308,3.76761-8.8408,2.54161-10.874-.61321-1.9401-2.64541-3.0473-3.76131-4.579a40.25783,40.25783,0,0,1-3.6573-6.5061c-2.4416-5.6918-3.6677-11.9975-6.30239-17.6891a54.31807,54.31807,0,0,0-5.08291-7.8289c-1.9368-2.7462-4.0687-4.6765-5.5962-7.9264-.50489-1.1214-1.2176-2.9519-.4074-4.1686a1.62869,1.62869,0,0,1,1.4279-1.3269c1.3151-1.1169,5.0805.3033,6.4002.9144a51.65092,51.65092,0,0,1,10.0637,5.0826c1.4255,1.0195,2.9508,2.9498,4.7773,3.4633H245.336c3.25179.7054,6.91559.1973,9.96809,1.1157a65.07089,65.07089,0,0,1,14.6375,7.0143A90.22213,90.22213,0,0,1,301.656,58.08567c1.22189,2.3346,1.73539,4.4719,2.85109,6.907,2.1362,4.9928,4.7816,10.0754,6.9115,14.9505,2.1341,4.7794,4.1728,9.6542,7.2252,13.6254,1.521,2.132,7.6243,3.2499,10.3694,4.3699,2.0281.9124,5.1846,1.727,7.0154,2.8427,3.4578,2.132,6.9072,4.5759,10.1656,6.9178,1.6227,1.2197,6.7075,3.7591,7.0131,5.7956"/><path class="cls-4" d="M249.50429,25.14067a16.22805,16.22805,0,0,0-4.16829.5103v.2046h.19939c.8209,1.6229,2.2444,2.7484,3.254,4.1708.819,1.627,1.5295,3.2478,2.342,4.8748l.1994-.2047c1.432-1.012,2.1427-2.639,2.1427-5.0828a22.953,22.953,0,0,1-1.2219-2.1352c-.6089-1.0151-1.9327-1.5232-2.7473-2.3378"/><path class="cls-2" d="M362.89769,225.81657H365v-10.3098h-3.16091l-2.5752,7.0281-2.8025-7.0281h-3.0483v10.3098h1.9898v-7.8447h.1145l2.9338,7.8447h1.5169l2.9296-7.8447Zm-16.975,0h2.2294V217.257h2.921v-1.7502H342.889v1.7502h3.03369Z"/></g></g></svg>