<svg xmlns="http://www.w3.org/2000/svg" xmlns:xlink="http://www.w3.org/1999/xlink" viewBox="0 0 365 223.54446"><defs><style>.cls-1{fill:none;}.cls-2{fill:#689f63;}.cls-3{fill:#404137;}.cls-4{clip-path:url(#clip-path);}.cls-5{fill:url(#linear-gradient);}.cls-6{clip-path:url(#clip-path-2);}.cls-7{fill:url(#linear-gradient-2);}.cls-8{clip-path:url(#clip-path-3);}.cls-9{fill:url(#linear-gradient-3);}</style><clipPath id="clip-path"><path class="cls-1" d="M132.61349,51.64206,97.852,71.70606a4.19564,4.19564,0,0,0-2.1007,3.6354v40.156a4.19455,4.19455,0,0,0,2.1007,3.6354l34.764,20.0797a4.20864,4.20864,0,0,0,4.19979,0l34.75821-20.0797a4.20474,4.20474,0,0,0,2.09569-3.6354v-40.156a4.19528,4.19528,0,0,0-2.1039-3.6354l-34.7533-20.064a4.226,4.226,0,0,0-4.208,0"/></clipPath><linearGradient id="linear-gradient" x1="-67.12265" y1="-138.27478" x2="-66.50382" y2="-138.27478" gradientTransform="matrix(-184.39268, -0.00471, 0.00471, -184.39268, -12184.51098, -25401.6504)" gradientUnits="userSpaceOnUse"><stop offset="0" stop-color="#3e863d"/><stop offset="0.3" stop-color="#3e863d"/><stop offset="0.5" stop-color="#55934f"/><stop offset="0.8" stop-color="#5aad45"/><stop offset="1" stop-color="#5aad45"/></linearGradient><clipPath id="clip-path-2"><path class="cls-1" d="M96.6127,118.04706a4.20615,4.20615,0,0,0,1.2377,1.0858l29.8191,17.224,4.96709,2.8549a4.21472,4.21472,0,0,0,2.4209.5487,4.2977,4.2977,0,0,0,.8251-.151l36.6625-67.1303a4.1603,4.1603,0,0,0-.9769-.7756L148.807,58.55976l-12.03161-6.9226a4.38887,4.38887,0,0,0-1.0892-.4373Z"/></clipPath><linearGradient id="linear-gradient-2" x1="-67.44973" y1="-138.09468" x2="-66.83091" y2="-138.09468" gradientTransform="matrix(183.77988, -0.00346, 0.00346, 183.77988, 12474.09633, 25474.30636)" gradientUnits="userSpaceOnUse"><stop offset="0" stop-color="#3e863d"/><stop offset="0.57" stop-color="#3e863d"/><stop offset="0.72" stop-color="#619857"/><stop offset="1" stop-color="#76ac64"/></linearGradient><clipPath id="clip-path-3"><path class="cls-1" d="M134.29339,51.10416a4.24064,4.24064,0,0,0-1.679.5379L97.9519,71.64836l37.3771,68.0791a4.17045,4.17045,0,0,0,1.49339-.5149l34.7615-20.0797a4.2123,4.2123,0,0,0,2.0297-2.868l-38.1031-65.0922a4.36475,4.36475,0,0,0-.8499-.0842c-.1155,0-.231.0058-.3465.0165"/></clipPath><linearGradient id="linear-gradient-3" x1="-67.36989" y1="-137.9441" x2="-66.75107" y2="-137.9441" gradientTransform="translate(8333.50267 16958.21939) scale(122.2438)" gradientUnits="userSpaceOnUse"><stop offset="0" stop-color="#6bbf47"/><stop offset="0.16" stop-color="#6bbf47"/><stop offset="0.38" stop-color="#79b461"/><stop offset="0.47" stop-color="#75ac64"/><stop offset="0.7" stop-color="#659e5a"/><stop offset="0.9" stop-color="#3e863d"/><stop offset="1" stop-color="#3e863d"/></linearGradient></defs><title>Node</title><g id="Layer_2" data-name="Layer 2"><g id="Layer_1-2" data-name="Layer 1"><path class="cls-2" d="M180.40589,223.54446a6.938,6.938,0,0,1-3.4572-.9241l-11.0044-6.515c-1.6436-.9192-.8416-1.2442-.2995-1.4315a22.22148,22.22148,0,0,0,4.9754-2.2691.83548.83548,0,0,1,.8193.0578l8.454,5.0166a1.115,1.115,0,0,0,1.02151,0l32.96269-19.0268a1.03938,1.03938,0,0,0,.50331-.8911v-38.0372a1.05847,1.05847,0,0,0-.50991-.9076l-32.9496-19.0103a1.01372,1.01372,0,0,0-1.0148,0l-32.943,19.0103a1.05051,1.05051,0,0,0-.5223.8994V197.553a1.01571,1.01571,0,0,0,.51161.8829l9.02659,5.2146c4.9011,2.4506,7.8962-.4373,7.8962-3.3416v-37.5421a.94054.94054,0,0,1,.9571-.9489h4.175a.94382.94382,0,0,1,.9489.9489v37.5586c0,6.5348-3.5645,10.289-9.761,10.289-1.906,0-3.4076,0-7.5992-2.0628l-8.647-4.9836a6.96983,6.96983,0,0,1-3.4572-6.0149v-38.0372a6.92637,6.92637,0,0,1,3.4572-6.0067l32.9958-19.0351a7.22776,7.22776,0,0,1,6.9308,0l32.9546,19.0433a6.95385,6.95385,0,0,1,3.4571,6.0067v38.0372a6.97406,6.97406,0,0,1-3.4571,6.0067l-32.9546,19.0351a6.92761,6.92761,0,0,1-3.4737.9241"/><path class="cls-2" d="M190.58759,197.33436c-14.4227,0-17.4468-6.6206-17.4468-12.1736a.94818.94818,0,0,1,.9547-.9488H178.353a.95308.95308,0,0,1,.94059.8069c.6436,4.3384,2.5578,6.5266,11.2792,6.5266,6.9473,0,9.90121-1.5694,9.90121-5.2535,0-2.1205-.84161-3.6964-11.634-4.7525-9.02661-.8911-14.60421-2.8796-14.60421-10.0993,0-6.6503,5.6107-10.6108,15.0086-10.6108,10.553,0,15.7841,3.6635,16.4442,11.5349a.96028.96028,0,0,1-.2558.7344.98149.98149,0,0,1-.7013.3053h-4.2823a.946.946,0,0,1-.9241-.7426c-1.0314-4.5628-3.5232-6.0233-10.2972-6.0233-7.5827,0-8.4656,2.6404-8.4656,4.6206,0,2.401,1.03971,3.1024,11.2709,4.4555,10.1323,1.345,14.9426,3.2427,14.9426,10.3633,0,7.1784-5.9902,11.2956-16.436,11.2956m40.1494-40.3392h1.1056a.96061.96061,0,0,0,1.0809-1.0066c0-.9736-.6683-.9736-1.0396-.9736h-1.1387Zm-1.3449-3.1188h2.4505c.8416,0,2.4918,0,2.4918,1.8812a1.63745,1.63745,0,0,1-1.3449,1.7492c.9819.066,1.0479.7096,1.1799,1.6172a6.9583,6.9583,0,0,0,.3713,1.8813H232.983c-.04131-.3301-.27231-2.1453-.27231-2.2443-.099-.4043-.2393-.6024-.7426-.6024h-1.2459v2.8549h-1.3779Zm-2.9456,3.5479a3.75439,3.75439,0,1,0-.0083-.0083m11.6834.0248a6.3491,6.3491,0,1,0-.0082,0"/><path class="cls-3" d="M78.3318,74.71276a4.22072,4.22072,0,0,0-2.1106-3.6676l-34.948-20.1077a4.08041,4.08041,0,0,0-1.9208-.5528H38.991a4.15225,4.15225,0,0,0-1.9308.5528L2.1139,71.04516A4.25265,4.25265,0,0,0,0,74.71686l.0767,54.1597A2.079,2.079,0,0,0,1.1246,130.7a1.99671,1.99671,0,0,0,2.0958,0l20.776-11.8979a4.2612,4.2612,0,0,0,2.1123-3.6635V89.83686a4.20834,4.20834,0,0,1,2.1081-3.6552l8.8451-5.0942a4.19659,4.19659,0,0,1,2.1122-.5676,4.12175,4.12175,0,0,1,2.0991.5668l8.841,5.0925a4.2106,4.2106,0,0,1,2.1122,3.6552v25.3001a4.27494,4.27494,0,0,0,2.1164,3.6634l20.7629,11.8898a2.06282,2.06282,0,0,0,2.1122,0,2.119,2.119,0,0,0,1.0462-1.8235Zm164.91129,28.1986a1.04882,1.04882,0,0,1-.52809.9126l-12.00361,6.9193a1.058,1.058,0,0,1-1.0536,0l-12.0052-6.9193a1.04556,1.04556,0,0,1-.5281-.9126V89.05306a1.06176,1.06176,0,0,1,.5198-.9159l11.997-6.9309a1.06652,1.06652,0,0,1,1.0644,0l12.0052,6.9309a1.05214,1.05214,0,0,1,.52811.9159ZM246.48579.26716a2.1103,2.1103,0,0,0-3.1404,1.8458v53.6315a1.4761,1.4761,0,0,1-2.2146,1.279l-8.7543-5.0422a4.21429,4.21429,0,0,0-4.2179,0l-34.9595,20.1762a4.21212,4.21212,0,0,0-2.1123,3.6469v40.364a4.22548,4.22548,0,0,0,2.1123,3.6551l34.9595,20.1903a4.2385,4.2385,0,0,0,4.222,0l34.9596-20.1985a4.231,4.231,0,0,0,2.1122-3.6552V15.56376a4.23052,4.23052,0,0,0-2.17-3.6882Zm116.416,88.4212A4.22175,4.22175,0,0,0,365,85.03976v-9.7824a4.22356,4.22356,0,0,0-2.10151-3.6511l-34.7368-20.1655a4.2184,4.2184,0,0,0-4.2328,0l-34.9512,20.1737a4.21348,4.21348,0,0,0-2.1123,3.6552v40.3475a4.23564,4.23564,0,0,0,2.1287,3.6717l34.7286,19.7942a4.21027,4.21027,0,0,0,4.1419.0247l21.0071-11.6752a2.10739,2.10739,0,0,0,.0165-3.6717l-35.1658-20.1819a2.09446,2.09446,0,0,1-1.06439-1.8235V89.09836a2.09489,2.09489,0,0,1,1.05609-1.8284L324.655,80.958a2.08646,2.08646,0,0,1,2.104,0l10.94909,6.312a2.10391,2.10391,0,0,1,1.0561,1.8235v9.9507a2.10519,2.10519,0,0,0,3.1684,1.8235Z"/><path class="cls-2" d="M325.53369,86.80046a.80113.80113,0,0,1,.8086,0l6.7081,3.8698a.81.81,0,0,1,.4043.7013v7.7477a.81.81,0,0,1-.4043.7013l-6.7081,3.8697a.80066.80066,0,0,1-.8086,0l-6.7039-3.8697a.80744.80744,0,0,1-.4126-.7013v-7.7477a.79963.79963,0,0,1,.4043-.7013Z"/><g class="cls-4"><rect class="cls-5" x="77.65628" y="40.97882" width="114.10558" height="109.08558" transform="translate(-10.35302 174.43865) rotate(-63.88747)"/></g><g class="cls-6"><rect class="cls-7" x="77.71559" y="37.32046" width="113.72552" height="116.38989" transform="translate(-30.42042 98.66666) rotate(-36.45892)"/></g><g class="cls-8"><rect class="cls-9" x="97.9511" y="51.08846" width="75.6477" height="88.6406"/></g></g></g></svg>