<svg xmlns="http://www.w3.org/2000/svg" xmlns:xlink="http://www.w3.org/1999/xlink" viewBox="0 0 495.422 479.2798"><defs><style>.cls-1{fill:none;}.cls-2{clip-path:url(#clip-path);}.cls-3{clip-path:url(#clip-path-2);}.cls-4{fill:#231f20;}.cls-5{fill:url(#radial-gradient);}.cls-6{fill:#4a659b;}.cls-7{fill:url(#radial-gradient-2);}.cls-8{fill:#617cbe;}.cls-9{fill:#fff;}.cls-10{fill:#08090d;}</style><clipPath id="clip-path" transform="translate(129.73621 205.92279)"><path class="cls-1" d="M182.84279,192.005c100.7901,0,182.50041-42.9827,182.50041-96.0025S283.63289,0,182.84289,0,.3432,42.9827.3432,96.0025,82.0528,192.005,182.84279,192.005"/></clipPath><clipPath id="clip-path-2" transform="translate(129.73621 205.92279)"><rect class="cls-1" y="0.62" width="365.68579" height="191.7546"/></clipPath><radialGradient id="radial-gradient" cx="-67.63919" cy="-154.05355" r="1.21667" gradientTransform="matrix(163.3026, 110.1345, -110.1345, 163.3026, -5681.30184, 32846.42714)" gradientUnits="userSpaceOnUse"><stop offset="0" stop-color="#4a659b"/><stop offset="1" stop-color="#231f20"/></radialGradient><radialGradient id="radial-gradient-2" cx="-68.12429" cy="-154.10262" r="1.21667" gradientTransform="translate(-2683.9096 16573.7682) rotate(33.99648) scale(98.48518)" gradientUnits="userSpaceOnUse"><stop offset="0" stop-color="#fff"/><stop offset="1" stop-color="#4a659b"/></radialGradient></defs><title>PHP</title><g id="Layer_2" data-name="Layer 2"><g id="Layer_1-2" data-name="Layer 1"><g class="cls-2"><g class="cls-3"><path class="cls-4" d="M182.84279,192.005c100.7901,0,182.50041-42.9827,182.50041-96.0025S283.63289,0,182.84289,0,.3432,42.9827.3432,96.0025,82.0528,192.005,182.84279,192.005" transform="translate(129.73621 205.92279)"/><path class="cls-4" d="M308.58859,167.7139C234.62239,277.3879,85.581,306.3682-24.0931,232.402S-162.7474,9.3944-88.7812-100.2797s223.00759-138.6543,332.68169-64.688c109.6741,73.9661,138.6543,223.0075,64.6881,332.6816" transform="translate(129.73621 205.92279)"/><rect class="cls-5" x="129.73621" y="206.54279" width="365.68579" height="191.7546"/><path class="cls-6" d="M209.2462,100.7551A119.82365,119.82365,0,1,1,176.90209-65.5857,119.86757,119.86757,0,0,1,209.2462,100.7551" transform="translate(129.73621 205.92279)"/><rect class="cls-7" x="129.73621" y="206.54279" width="365.68579" height="191.7546"/></g><g class="cls-3"><path class="cls-8" d="M182.84279,184.8767c96.8533,0,175.3708-39.7911,175.3708-88.8742S279.69609,7.1283,182.84279,7.1283,7.4721,46.9194,7.4721,96.0025s78.5175,88.8743,175.37069,88.8743" transform="translate(129.73621 205.92279)"/><path class="cls-9" d="M218.3672,124.728,227.067,79.9572c1.9625-10.1045.3301-17.6427-4.8515-22.4051-5.0186-4.6088-13.539-6.8491-26.0475-6.8491h-15.0652l4.31241-22.1827a2.85213,2.85213,0,0,0-2.8-3.3955H161.82249a2.85037,2.85037,0,0,0-2.7987,2.3076l-9.23859,47.53a26.73353,26.73353,0,0,0-6.22181-13.739c-6.0993-6.981-15.74629-10.5204-28.67469-10.5204H74.5873a2.85029,2.85029,0,0,0-2.7987,2.3076L53.0897,149.2177a2.85182,2.85182,0,0,0,2.7988,3.3954H76.8461a2.85218,2.85218,0,0,0,2.7994-2.3069l4.5229-23.2713H99.7688c8.1877,0,15.0631-.8871,20.4342-2.6357a39.9992,39.9992,0,0,0,14.99709-8.9824,46.10884,46.10884,0,0,0,8.8609-11.0022l-3.7367,19.2249a2.85287,2.85287,0,0,0,2.7994,3.3954h20.7926a2.85226,2.85226,0,0,0,2.7994-2.3069l10.2623-52.81h14.267c6.0801,0,7.8596,1.2106,8.3428,1.7315.4403.4745,1.3545,2.1479.3301,7.4226l-8.2722,42.5674a2.85287,2.85287,0,0,0,2.7994,3.3954h21.1227A2.85228,2.85228,0,0,0,218.3672,124.728ZM121.9701,87.7363c-1.3057,6.711-3.7672,11.4986-7.3151,14.2301-3.6054,2.7756-9.3718,4.1836-17.1403,4.1836H88.2266l6.717-34.562h12.0082c8.8233,0,12.3773,1.8859,13.8044,3.4674,1.9782,2.1934,2.398,6.579,1.2139,12.6809" transform="translate(129.73621 205.92279)"/><path class="cls-9" d="M307.2842,61.2234c-6.09841-6.981-15.74621-10.5204-28.67391-10.5204H238.309a2.85115,2.85115,0,0,0-2.7995,2.3077l-18.6988,96.207a2.85181,2.85181,0,0,0,2.7994,3.3954h20.9576a2.84973,2.84973,0,0,0,2.7981-2.3069l4.5236-23.2713h15.6004c8.1876,0,15.063-.8871,20.4341-2.6357a40.0058,40.0058,0,0,0,14.9978-8.9824,44.65365,44.65365,0,0,0,14.0294-25.1221C315.33459,78.0377,313.42759,68.2565,307.2842,61.2234ZM285.54909,87.7363c-1.3063,6.7111-3.7671,11.4986-7.315,14.2301-3.6054,2.7756-9.3725,4.1836-17.1398,4.1836H251.805l6.717-34.562h12.0089c8.8227,0,12.3772,1.8859,13.80431,3.4674,1.97829,2.1935,2.39809,6.5791,1.21389,12.681" transform="translate(129.73621 205.92279)"/><path class="cls-10" d="M106.9518,68.7365q11.9439,0,15.9219,4.4093,3.97635,4.4091,1.8957,15.1351-2.17425,11.1696-8.3751,15.9456-6.20415,4.7763-18.8796,4.775H84.7671l7.8253-40.265ZM55.8885,149.7616H76.8461l4.9711-25.5782H99.7688q11.8815,0,19.5523-2.4964A37.00264,37.00264,0,0,0,133.27,113.3171a41.80158,41.80158,0,0,0,13.1607-23.5663q3.3258-17.10735-5.0153-26.6508-8.33879-9.5457-26.52669-9.5454H74.5873l-18.6988,96.207" transform="translate(129.73621 205.92279)"/><path class="cls-10" d="M161.82249,27.9764h20.7926L177.644,53.5546h18.5239q17.48175,0,24.1188,6.0978,6.63676,6.09915,3.981,19.7616l-8.6999,44.7694h-21.1227l8.2715-42.5674q1.4118-7.2636-1.039-9.9065-2.45145-2.64165-10.4326-2.643h-16.6175l-10.7112,55.1169h-20.7926l18.6988-96.207" transform="translate(129.73621 205.92279)"/><path class="cls-10" d="M270.53089,68.7365q11.94285,0,15.9218,4.4093,3.97635,4.4091,1.8951,15.1351-2.1732,11.1696-8.3751,15.9456-6.2031,4.7763-18.8784,4.775h-12.7482l7.8253-40.265h14.3595Zm-51.0633,81.0251H240.4252l4.97109-25.5782H263.3472q11.8815,0,19.55239-2.4964a37.01025,37.01025,0,0,0,13.9495-8.3699,41.79515,41.79515,0,0,0,13.16-23.5663q3.32685-17.10735-5.0146-26.6508-8.33893-9.5457-26.5274-9.5454h-40.3014l-18.6981,96.207" transform="translate(129.73621 205.92279)"/></g></g></g></g></svg>