<svg xmlns="http://www.w3.org/2000/svg" viewBox="0 0 365 410.3584"><defs><style>.cls-1{fill:#e535ab;}</style></defs><title>GraphQL</title><g id="Layer_2" data-name="Layer 2"><g id="Layer_1-2" data-name="Layer 1"><path class="cls-1" d="M346.50709,257.7839a28.1628,28.1628,0,0,0-9.886-3.8553V156.4551a28.60555,28.60555,0,0,0,9.9908-3.8806A36.54977,36.54977,0,1,0,301.955,95.744L217.59129,47.0263a36.56558,36.56558,0,1,0-70.12289-.0541L63.067,95.703a36.55983,36.55983,0,0,0-58.2453,6.8866,36.70551,36.70551,0,0,0,13.6585,49.9849,28.60586,28.60586,0,0,0,9.9907,3.8806v97.4715a28.15232,28.15232,0,0,0-9.8858,3.8573A36.5493,36.5493,0,1,0,54.9728,321.182a36.66238,36.66238,0,0,0,8.155-6.4474l84.3412,48.7048a36.56565,36.56565,0,1,0,69.80219-1.1793l83.8639-48.4205a36.53548,36.53548,0,1,0,45.372-56.0557ZM46.9237,254.3603c-.4776-.1387-1.3333-.2677-1.3333-.3869V156.3686a38.18725,38.18725,0,0,0,22.7369-17.2072,36.50009,36.50009,0,0,0,3.4077-28.3458l84.5292-48.8199c.3412.353.7298.6992,1.0849,1.0382Zm162.6683,94.788a36.61639,36.61639,0,0,0-53.3931-.7458L71.7557,299.6133c.1359-.4691.2625-1.4495.3795-1.4495H292.94749a9.3271,9.3271,0,0,0,.6754,2.4334Zm87.17539-77.8479a44.72313,44.72313,0,0,0-3.85539,9.7439H72.182a44.70342,44.70342,0,0,0-3.8573-9.7439,37.14764,37.14764,0,0,0-6.4279-8.2188L172.3583,71.7363a37.00861,37.00861,0,0,0,20.40629-.0282l110.4405,191.3315A36.646,36.646,0,0,0,296.76739,271.3004Zm22.7342-17.3364c0,.1164-.8389.2423-1.3082.3774L207.77959,63.0118c.3335-.3189.6878-.6441,1.0089-.9754l84.5934,48.8337a36.48066,36.48066,0,0,0,3.37611,28.2913,38.19991,38.19991,0,0,0,22.74359,17.2072Z"/></g></g></svg>