<svg xmlns="http://www.w3.org/2000/svg" viewBox="0 0 265.88079 364.99999"><defs><style>.cls-1{fill:#ffc24a;}.cls-2{fill:#f4bd62;}.cls-3{fill:#f6820c;}.cls-4{fill:#fde068;}.cls-5{fill:#fcca3f;}.cls-6{fill:#eeab37;}</style></defs><title>Firebase</title><g id="Layer_2" data-name="Layer 2"><g id="Layer_1-2" data-name="Layer 1"><path class="cls-1" d="M0,294.61551l2.2097-3.094L106.7365,93.18661l.2207-2.0996L60.8796,4.537a8.55034,8.55034,0,0,0-15.9952,2.6989Z"/><path class="cls-2" d="M140.5474,156.55431l34.3081-35.1369-34.3181-65.5136a8.84073,8.84073,0,0,0-15.577,0l-18.3346,34.9677v2.9781Z"/><polygon class="cls-3" points="0 294.616 1.002 293.609 4.641 292.129 138.393 158.875 140.087 154.262 106.722 90.681 0 294.616"/><path class="cls-4" d="M144.8324,361.81931l121.04839-67.5098L231.3134,81.42a8.27222,8.27222,0,0,0-14.02031-4.518L.0003,294.61581l120.3543,67.1975a25.11664,25.11664,0,0,0,24.4778.006"/><path class="cls-5" d="M264.79609,293.74331,230.49119,82.47c-1.0731-6.6102-7.8684-9.3455-12.5996-4.6058L1.3424,294.20241l119.0323,66.5323a24.92589,24.92589,0,0,0,24.292.0059Z"/><path class="cls-6" d="M144.8323,359.83041a25.11664,25.11664,0,0,1-24.4778-.0059L.9696,293.59211l-.9694,1.0237,120.3543,67.1975a25.11664,25.11664,0,0,0,24.4778.006l121.04839-67.5098-.29629-1.8238Z"/></g></g></svg>