<svg xmlns="http://www.w3.org/2000/svg" viewBox="0 0 198.934 370"><defs><style>.cls-1{fill:#0074bd;}.cls-2{fill:#ea2d2e;}</style></defs><title>Java</title><g id="Layer_2" data-name="Layer 2"><g id="Layer_1-2" data-name="Layer 1"><path class="cls-1" d="M65.76979,196.2644s-9.69279,5.6416,6.9059,7.5453c20.1119,2.2962,30.3891,1.9655,52.5457-2.2226a91.88982,91.88982,0,0,0,13.97461,6.8138c-49.68531,21.287-112.4481-1.2334-73.42621-12.1365Z"/><path class="cls-1" d="M59.69529,168.4813s-10.8728,8.0501,5.7382,9.7669c21.4857,2.2181,38.447,2.4,67.8138-3.2517a29.99528,29.99528,0,0,0,10.4338,6.3658c-60.063,17.5688-126.96109,1.3822-83.9858-12.881Z"/><path class="cls-2" d="M110.87509,121.3459c12.24891,14.0998-3.2118,26.7776-3.2118,26.7776s31.0836-16.0434,16.8114-36.1436c-13.3346-18.7359-23.5579-28.043,31.7887-60.1404.00061,0-86.88039,21.6934-45.3883,69.5064Z"/><path class="cls-1" d="M176.587,216.8176s7.17539,5.915-7.90291,10.4894c-28.6718,8.6844-119.358,11.304-144.54619.3475-9.0483-3.9411,7.9276-9.4036,13.2689-10.5573a34.66768,34.66768,0,0,1,8.749-.9847c-10.07-7.0912-65.0871,13.9269-27.9425,19.9547,101.29459,16.419,184.64489-7.3954,158.3737-19.2496Z"/><path class="cls-1" d="M70.43449,139.6911S24.3119,150.6493,54.102,154.6319c12.58229,1.6837,37.64979,1.2963,61.01679-.6641,19.0913-1.6023,38.2506-5.0291,38.2506-5.0291a81.32811,81.32811,0,0,0-11.5971,6.2091C94.926,167.4691,4.4447,161.7309,30.497,149.134c22.02239-10.6538,39.93749-9.4429,39.93749-9.4429Z"/><path class="cls-1" d="M153.17849,185.9378c47.6176-24.7374,25.5986-48.5125,10.2306-45.3103a35.97741,35.97741,0,0,0-5.444,1.4636,8.66262,8.66262,0,0,1,4.0663-3.1371c30.4031-10.6836,53.7797,31.5209-9.8045,48.2358a4.22823,4.22823,0,0,0,.9516-1.252Z"/><path class="cls-2" d="M124.47529,0s26.3655,26.3806-25.0148,66.9352c-41.20349,32.5444-9.3946,51.0934-.0146,72.2973-24.0536-21.7002-41.6964-40.8056-29.8625-58.5843C86.96129,54.5544,135.11059,41.8991,124.47529,0Z"/><path class="cls-1" d="M75.11609,252.992c45.6971,2.9216,115.8896-1.6258,117.5508-23.2507,0,0-3.1933,8.1977-37.7694,14.7021-39.0073,7.3438-87.1291,6.4888-115.65939,1.778,0,0,5.8448,4.8377,35.878,6.7706Z"/><path class="cls-2" d="M190.55709,291.7737h-1.3917v-.7776h3.748v.7776h-1.3861v3.8894h-.9707v-3.8894Zm7.4836.197h-.0179l-1.3817,3.6919h-.6355l-1.3732-3.6919h-.014v3.6919h-.9196v-4.667h1.3485l1.271,3.3039,1.275-3.3039H198.934v4.667h-.89271v-3.6919Z"/><path class="cls-2" d="M67.628,335.6181c-4.30931,3.7356-8.86631,5.8364-12.95671,5.8364-5.8264,0-8.98649-3.5009-8.98649-9.1038,0-6.0649,3.38359-10.504,16.93379-10.504H67.628v13.7714Zm11.89569,13.4194V307.4954c0-10.6191-6.0559-17.626-20.64969-17.626a54.47033,54.47033,0,0,0-22.0511,4.786l1.7466,7.3578a51.23044,51.23044,0,0,1,17.0315-3.3858c8.40869,0,12.027,3.3858,12.027,10.3889v5.2525H63.42589c-20.42579,0-29.64129,7.9215-29.64129,19.838,0,10.2654,6.0739,16.1024,17.50749,16.1024,7.3478,0,12.8395-3.0345,17.9657-7.4752l.9336,6.3035Z"/><path class="cls-2" d="M119.22219,349.0375H104.388L86.53129,290.9304h12.9556l11.0839,35.7057,2.46521,10.728a223.814,223.814,0,0,0,11.54589-46.4337h12.6009c-3.3696,19.1329-9.4491,40.1364-17.9606,58.1071Z"/><path class="cls-2" d="M176.14519,335.6181c-4.3234,3.7356-8.8815,5.8364-12.9607,5.8364-5.8286,0-8.9887-3.5009-8.9887-9.1038,0-6.0649,3.3903-10.504,16.9287-10.504h5.0201v13.7714Zm11.8996,13.4194V307.4954c0-10.6191-6.0733-17.626-20.6537-17.626a54.47491,54.47491,0,0,0-22.0606,4.786l1.7494,7.3578a51.30521,51.30521,0,0,1,17.0416-3.3858c8.3987,0,12.0231,3.3858,12.0231,10.3889v5.2525h-4.2021c-20.4303,0-29.643,7.9215-29.643,19.838,0,10.2654,6.06551,16.1024,17.4986,16.1024,7.35391,0,12.83491-3.0345,17.9752-7.4752l.9398,6.3035Z"/><path class="cls-2" d="M20.7391,358.9127A31.22677,31.22677,0,0,1,5.8735,370L0,363.0812c4.5671-2.3456,8.479-6.1261,10.2991-9.6462,1.5697-3.1377,2.2232-7.1709,2.2232-16.826V270.2616H25.1647v65.4329c0,12.913-1.0308,18.1335-4.4256,23.2182Z"/></g></g></svg>