<svg xmlns="http://www.w3.org/2000/svg" viewBox="0 0 315.78239 365"><defs><style>.cls-1{fill:#2f406a;}.cls-2{fill:#2379bd;}.cls-3{fill:#03afef;}</style></defs><title>Sequelize</title><g id="Layer_2" data-name="Layer 2"><g id="Layer_1-2" data-name="Layer 1"><polyline class="cls-1" points="270.158 116.398 270.158 247.884 158.43 313.986 157.42 314.905 157.42 364.048 158.43 365 315.782 274.109 315.782 90.891 314.296 90.527 269.935 115.328 270.158 116.398"/><polyline class="cls-2" points="46.343 248.961 158.43 313.986 158.43 365 0 273.75 0 91.25 1.626 91.005 45.859 116.721 46.343 118.194 46.343 248.961"/><polyline class="cls-3" points="46.343 118.194 0 91.25 158.071 0 315.782 90.891 270.158 116.398 158.071 52.451 46.343 118.194"/><polyline class="cls-1" points="156.507 233.923 155.293 232.685 155.293 183.312 156.507 182.685 156.802 181.468 199.13 156.776 200.426 157.066 200.426 207.939 156.507 233.923"/><polyline class="cls-2" points="111.856 209.524 111.856 156.701 113.083 156.64 156.141 181.698 156.507 182.685 156.507 233.923 111.856 209.524"/><polyline class="cls-3" points="155.774 130.715 111.856 156.701 156.507 182.685 200.426 157.066 155.774 130.715"/><polyline class="cls-1" points="101.852 266.13 100.64 264.892 100.64 215.518 101.852 214.892 102.148 213.675 144.475 188.983 145.771 189.273 145.771 240.145 101.852 266.13"/><polyline class="cls-2" points="57.202 241.731 57.202 188.907 58.428 188.846 101.486 213.906 101.852 214.892 101.852 266.13 57.202 241.731"/><polyline class="cls-3" points="101.121 162.923 57.202 188.907 101.852 214.892 145.771 189.273 101.121 162.923"/><polyline class="cls-1" points="215.065 267.351 213.851 266.112 213.851 216.738 215.065 216.112 215.36 214.895 257.688 190.203 258.983 190.493 258.983 241.365 215.065 267.351"/><polyline class="cls-2" points="170.414 242.951 170.414 190.127 171.641 190.066 214.699 215.126 215.065 216.112 215.065 267.351 170.414 242.951"/><polyline class="cls-3" points="214.332 164.143 170.414 190.127 215.065 216.112 258.983 190.493 214.332 164.143"/><polyline class="cls-1" points="160.41 299.558 159.197 298.319 159.197 248.945 160.41 248.32 160.706 247.101 203.034 222.411 204.328 222.701 204.328 273.572 160.41 299.558"/><polyline class="cls-2" points="115.76 275.159 115.76 222.334 116.986 222.274 160.045 247.332 160.41 248.32 160.41 299.558 115.76 275.159"/><polyline class="cls-3" points="159.679 196.349 115.76 222.334 160.41 248.32 204.328 222.701 159.679 196.349"/><polyline class="cls-1" points="156.507 163.898 155.293 162.659 155.293 113.286 156.507 112.66 156.802 111.442 199.13 86.751 200.426 87.041 200.426 137.913 156.507 163.898"/><polyline class="cls-2" points="111.856 139.499 111.856 86.675 113.083 86.614 156.141 111.672 156.507 112.66 156.507 163.898 111.856 139.499"/><polyline class="cls-3" points="155.774 60.689 111.856 86.675 156.507 112.66 200.426 87.041 155.774 60.689"/><polyline class="cls-1" points="101.852 196.105 100.64 194.866 100.64 145.493 101.852 144.866 102.148 143.649 144.475 118.957 145.771 119.247 145.771 170.12 101.852 196.105"/><polyline class="cls-2" points="57.202 171.705 57.202 118.882 58.428 118.822 101.486 143.88 101.852 144.866 101.852 196.105 57.202 171.705"/><polyline class="cls-3" points="101.121 92.897 57.202 118.882 101.852 144.866 145.771 119.247 101.121 92.897"/><polyline class="cls-1" points="215.065 197.325 213.851 196.086 213.851 146.713 215.065 146.086 215.36 144.869 257.688 120.177 258.983 120.467 258.983 171.34 215.065 197.325"/><polyline class="cls-2" points="170.414 172.925 170.414 120.102 171.641 120.042 214.699 145.1 215.065 146.086 215.065 197.325 170.414 172.925"/><polyline class="cls-3" points="214.332 94.117 170.414 120.102 215.065 146.086 258.983 120.467 214.332 94.117"/><polyline class="cls-1" points="160.41 229.532 159.197 228.293 159.197 178.919 160.41 178.294 160.706 177.076 203.034 152.385 204.328 152.675 204.328 203.546 160.41 229.532"/><polyline class="cls-2" points="115.76 205.133 115.76 152.308 116.986 152.248 160.045 177.307 160.41 178.294 160.41 229.532 115.76 205.133"/><polyline class="cls-3" points="159.679 126.323 115.76 152.308 160.41 178.294 204.328 152.675 159.679 126.323"/></g></g></svg>