<svg xmlns="http://www.w3.org/2000/svg" viewBox="0 0 722.46583 426.67966"><defs><style>.cls-1{isolation:isolate;}.cls-2,.cls-4{fill:#939598;}.cls-2,.cls-3{opacity:0.35;mix-blend-mode:multiply;}.cls-14,.cls-5{fill:#fad978;}.cls-6,.cls-9{fill:#444;}.cls-15,.cls-16,.cls-7{fill:#fff;}.cls-10,.cls-14,.cls-15,.cls-16,.cls-17,.cls-18,.cls-20,.cls-7,.cls-8,.cls-9{stroke:#444;}.cls-10,.cls-13,.cls-14,.cls-16,.cls-17,.cls-18,.cls-20,.cls-7,.cls-8{stroke-width:3px;}.cls-11,.cls-8{fill:#fffffd;}.cls-10,.cls-14,.cls-20,.cls-8,.cls-9{stroke-miterlimit:10;}.cls-10,.cls-19{fill:#48d1cc;}.cls-12{fill:#f0777e;}.cls-13,.cls-17,.cls-18,.cls-20{fill:none;}.cls-13{stroke:#fad978;}.cls-15{stroke-width:6px;}.cls-16,.cls-17{stroke-linecap:round;stroke-linejoin:round;}.cls-18{stroke-linejoin:bevel;}</style></defs><title>banner-1</title><g class="cls-1"><g id="Layer_2" data-name="Layer 2"><g id="graphics"><path class="cls-2" d="M685.61533,427.91354a19.71807,19.71807,0,0,0,8.6435-16.2617V251.684a23.37312,23.37312,0,0,0-23.3457-23.3457H559.53623a23.37483,23.37483,0,0,0-23.3477,23.3457v159.9678a23.26615,23.26615,0,0,0,6.6143,16.2617Z" transform="translate(0 -2.82178)"/><g class="cls-3"><polygon class="cls-4" points="574.162 117.335 574.162 413.79 610.18 413.79 610.18 117.335 602.602 111.677 574.162 117.335"/></g><rect class="cls-5" x="562.99513" y="112.16896" width="39.0176" height="299.4541" rx="1.5"/><path class="cls-6" d="M600.51273,116.49074v296.4541h-36.0176V116.49074h36.0176m0-3h-36.0176a3.00013,3.00013,0,0,0-3,3v296.4541a3.0002,3.0002,0,0,0,3,3h36.0176a3.00013,3.00013,0,0,0,3-3V116.49074a3.00007,3.00007,0,0,0-3-3Z" transform="translate(0 -2.82178)"/><line class="cls-7" x1="592.68753" y1="129.42286" x2="600.82523" y2="129.42286"/><line class="cls-7" x1="587.68753" y1="145.98146" x2="600.82523" y2="145.98146"/><line class="cls-7" x1="592.68753" y1="162.54106" x2="600.82523" y2="162.54106"/><line class="cls-7" x1="587.68753" y1="179.09956" x2="600.82523" y2="179.09956"/><line class="cls-7" x1="592.68753" y1="195.66016" x2="600.82523" y2="195.66016"/><line class="cls-7" x1="587.68753" y1="212.21976" x2="600.82523" y2="212.21976"/><line class="cls-7" x1="592.68753" y1="228.77836" x2="600.82523" y2="228.77836"/><line class="cls-7" x1="587.68753" y1="245.33696" x2="600.82523" y2="245.33696"/><line class="cls-7" x1="592.68753" y1="261.89746" x2="600.82523" y2="261.89746"/><line class="cls-7" x1="587.68753" y1="278.45606" x2="600.82523" y2="278.45606"/><line class="cls-7" x1="592.68753" y1="295.01466" x2="600.82523" y2="295.01466"/><line class="cls-7" x1="587.68753" y1="311.57226" x2="600.82523" y2="311.57226"/><line class="cls-7" x1="592.68753" y1="328.13286" x2="600.82523" y2="328.13286"/><line class="cls-7" x1="587.68753" y1="344.69136" x2="600.82523" y2="344.69136"/><line class="cls-7" x1="592.68753" y1="361.24996" x2="600.82523" y2="361.24996"/><line class="cls-7" x1="587.68753" y1="377.80856" x2="600.82523" y2="377.80856"/><line class="cls-7" x1="592.68753" y1="394.36916" x2="600.82523" y2="394.36916"/><path class="cls-8" d="M551.53423,218.51656h111.3789a23.3457,23.3457,0,0,1,23.3457,23.3457V401.832a23.3477,23.3477,0,0,1-23.3477,23.3477H551.53423a23.3457,23.3457,0,0,1-23.3457-23.3457V241.86226A23.3457,23.3457,0,0,1,551.53423,218.51656Z"/><path class="cls-9" d="M626.63973,234.11964a1.99868,1.99868,0,0,1-1.9991,1.9985h-34.8339a1.9995,1.9995,0,1,1,0-3.999h34.8339A1.99911,1.99911,0,0,1,626.63973,234.11964Z" transform="translate(0 -2.82178)"/><rect class="cls-10" x="540.87113" y="241.99316" width="132.2412" height="150.0596"/><path class="cls-8" d="M607.22073,403.44484a6.8613,6.8613,0,1,0,6.8653,6.8555A6.855,6.855,0,0,0,607.22073,403.44484Z" transform="translate(0 -2.82178)"/><rect class="cls-11" x="550.94633" y="255.37986" width="110.7031" height="50.6123"/><path class="cls-5" d="M618.70613,283.00044l-24.2149,13.459a.68423.68423,0,0,1-.7207.0547.699.699,0,0,1-.3007-.6582v-26.8418a.70163.70163,0,0,1,.3007-.6562.68831.68831,0,0,1,.7207.0547l24.2149,13.4589a.58933.58933,0,0,1,0,1.1289Z" transform="translate(0 -2.82178)"/><rect class="cls-11" x="610.38483" y="315.04686" width="51.5058" height="64.332"/><rect class="cls-12" x="613.88873" y="318.94286" width="44.4971" height="15.5415"/><line class="cls-13" x1="613.88873" y1="357.66606" x2="643.66023" y2="357.66606"/><line class="cls-13" x1="613.88873" y1="350.16606" x2="643.66023" y2="350.16606"/><line class="cls-13" x1="613.88873" y1="342.66606" x2="643.66023" y2="342.66606"/><line class="cls-13" x1="613.88873" y1="365.58596" x2="628.01173" y2="365.58596"/><rect class="cls-11" x="550.94633" y="315.04686" width="51.5059" height="64.332"/><rect class="cls-12" x="554.45123" y="318.94286" width="44.4971" height="15.5415"/><line class="cls-13" x1="554.45123" y1="357.66606" x2="584.22173" y2="357.66606"/><line class="cls-13" x1="554.45123" y1="350.16606" x2="584.22173" y2="350.16606"/><line class="cls-13" x1="554.45123" y1="342.66606" x2="584.22173" y2="342.66606"/><line class="cls-13" x1="554.45123" y1="365.58596" x2="568.57423" y2="365.58596"/><path class="cls-2" d="M550.20223,222.17234a23.37526,23.37526,0,0,0-23.3477,23.3462v159.9688a23.37315,23.37315,0,0,0,23.3477,23.3496h18.0547c12.456-3.4922,21.0371-11.7266,21.0371-26.5274v-7.4394h-24.6035l.0029-172.6978Z" transform="translate(0 -2.82178)"/><path class="cls-2" d="M250.83993,160.52a63.5347,63.5347,0,1,1-63.5323-63.5342A63.5354,63.5354,0,0,1,250.83993,160.52Z" transform="translate(0 -2.82178)"/><path class="cls-14" d="M241.18463,156.29154a63.1509,63.1509,0,1,1-63.1504-63.1514A63.14733,63.14733,0,0,1,241.18463,156.29154Z" transform="translate(0 -2.82178)"/><line class="cls-7" x1="216.23443" y1="115.41696" x2="170.25783" y2="161.39256"/><line class="cls-15" x1="182.69343" y1="158.01466" x2="150.68263" y2="126.00486"/><path class="cls-14" d="M183.15143,156.29154a5.1133,5.1133,0,1,1-5.1172-5.1172A5.11753,5.11753,0,0,1,183.15143,156.29154Z" transform="translate(0 -2.82178)"/><line class="cls-7" x1="178.03323" y1="108.69336" x2="178.03323" y2="96.74216"/><line class="cls-7" x1="178.03323" y1="210.19436" x2="178.03323" y2="198.24216"/><line class="cls-7" x1="133.25883" y1="153.46776" x2="121.30763" y2="153.46776"/><line class="cls-7" x1="234.75883" y1="153.46776" x2="222.80763" y2="153.46776"/><path class="cls-8" d="M55.33213,275.11036h189.9687a23.3496,23.3496,0,0,1,23.3496,23.3496v103.3721a23.3476,23.3476,0,0,1-23.3476,23.3476H55.33213a23.3457,23.3457,0,0,1-23.3457-23.3457V298.45606A23.3457,23.3457,0,0,1,55.33213,275.11036Z"/><rect class="cls-10" x="65.11433" y="287.79396" width="183.0596" height="124.2392"/><path class="cls-16" d="M56.543,352.73384a6.86135,6.86135,0,1,0-6.8555,6.8653A6.85444,6.85444,0,0,0,56.543,352.73384Z" transform="translate(0 -2.82178)"/><path class="cls-14" d="M158.18363,350.66164c0-16.1953-12.8252-29.3262-28.6465-29.3262s-28.6416,13.1309-28.6416,29.3262a29.48036,29.48036,0,0,0,12.3799,24.1367,4.4358,4.4358,0,0,1,1.957,3.5547v9.7266c0,4.3183,3.4161,3.957,7.627,3.957H136.211c4.2187,0,7.6357.3613,7.6357-3.957V378.353a4.42391,4.42391,0,0,1,1.958-3.5547A29.48712,29.48712,0,0,0,158.18363,350.66164Z" transform="translate(0 -2.82178)"/><line class="cls-17" x1="134.46293" y1="360.10936" x2="134.46293" y2="380.07616"/><path class="cls-16" d="M137.44053,398.63034a8.29578,8.29578,0,1,1-16.587,0c0-4.6855,3.7178-4.6308,8.2901-4.6308C133.72763,393.99954,137.44053,393.94484,137.44053,398.63034Z" transform="translate(0 -2.82178)"/><path class="cls-16" d="M115.22073,381.58934v9.0879a5.51066,5.51066,0,0,0,5.4551,5.5566h17.7246a5.50384,5.50384,0,0,0,5.4522-5.5566v-9.0879Z" transform="translate(0 -2.82178)"/><path class="cls-18" d="M134.67293,352.226a5.41732,5.41732,0,0,1,3.3662-1.1679,5.67732,5.67732,0,0,1,0,11.3515c-3.0361,0-4.9531-1.8965-8.5801-5.6465-8.833-9.4785-14.2129-3.1582-14.2129-.0253a5.61337,5.61337,0,0,0,5.544,5.6718,5.40437,5.40437,0,0,0,3.3672-1.166v21.6543" transform="translate(0 -2.82178)"/><line class="cls-7" x1="79.43463" y1="347.64256" x2="91.38773" y2="347.64256"/><line class="cls-7" x1="167.49613" y1="347.64256" x2="179.44923" y2="347.64256"/><line class="cls-7" x1="94.08503" y1="383.00196" x2="102.53523" y2="374.54886"/><line class="cls-7" x1="156.34963" y1="320.73436" x2="164.80473" y2="312.28126"/><line class="cls-7" x1="129.44343" y1="309.58786" x2="129.44343" y2="297.63766"/><line class="cls-7" x1="164.80473" y1="383.00196" x2="156.34963" y2="374.54886"/><line class="cls-7" x1="102.53523" y1="320.73436" x2="94.08503" y2="312.28126"/><path class="cls-8" d="M194.44343,188.35884a17.17691,17.17691,0,0,1,17.1767-17.1796h325.2295a17.17842,17.17842,0,0,1,17.1778,17.1796l-.0039,203.6426h-359.586Z" transform="translate(0 -2.82178)"/><path class="cls-8" d="M169.83793,392.00144v7.4395c0,20.7031,16.7832,28.5605,37.4873,28.5605h333.8145c20.7041,0,37.4873-7.8574,37.4873-28.5605v-7.4395Z" transform="translate(0 -2.82178)"/><rect class="cls-10" x="219.20803" y="195.95116" width="314.2891" height="181.0664"/><path class="cls-12" d="M240.19053,210.64694a3.6055,3.6055,0,1,1-3.6055-3.6069A3.60483,3.60483,0,0,1,240.19053,210.64694Z" transform="translate(0 -2.82178)"/><path class="cls-11" d="M250.17393,210.64694a3.605,3.605,0,1,1-3.6055-3.6069A3.60483,3.60483,0,0,1,250.17393,210.64694Z" transform="translate(0 -2.82178)"/><path class="cls-5" d="M260.15823,210.64694a3.60545,3.60545,0,1,1-3.6059-3.6069A3.60549,3.60549,0,0,1,260.15823,210.64694Z" transform="translate(0 -2.82178)"/><rect class="cls-11" x="231.20713" y="217.95116" width="290.2783" height="147.0567"/><rect class="cls-12" x="244.92683" y="232.22756" width="51.1465" height="4.2021"/><rect class="cls-12" x="282.70123" y="287.37846" width="93.2725" height="4.2031"/><rect class="cls-12" x="382.66123" y="287.37846" width="30.8203" height="4.2031"/><rect class="cls-12" x="422.19833" y="287.37846" width="69.4873" height="4.2031"/><rect class="cls-12" x="256.96103" y="259.80226" width="25.5752" height="4.2046"/><rect class="cls-19" x="269.24513" y="301.16646" width="25.5762" height="4.2032"/><rect class="cls-19" x="245.37113" y="328.74076" width="25.5762" height="4.2031"/><rect class="cls-19" x="245.37113" y="246.01416" width="25.5762" height="4.2031"/><rect class="cls-5" x="278.35653" y="246.01416" width="69.2041" height="4.2031"/><rect class="cls-5" x="355.92483" y="246.01416" width="53.7217" height="4.2031"/><rect class="cls-19" x="269.24513" y="273.59126" width="25.5762" height="4.2022"/><rect class="cls-19" x="305.52053" y="273.59126" width="25.5723" height="4.2022"/><rect class="cls-19" x="383.16213" y="273.59126" width="41.9668" height="4.2022"/><rect class="cls-5" x="339.53423" y="273.59126" width="35.6025" height="4.2022"/><rect class="cls-12" x="285.79493" y="342.52876" width="14.543" height="4.2022"/><rect class="cls-19" x="258.21583" y="342.52876" width="18.2188" height="4.2022"/><rect class="cls-5" x="309.69733" y="342.52876" width="20.2275" height="4.2022"/><rect class="cls-5" x="281.61623" y="314.95406" width="226.0616" height="4.2022"/><path class="cls-12" d="M289.61623,427.47994a9.18555,9.18555,0,1,1,9.1836-9.1836A9.19486,9.19486,0,0,1,289.61623,427.47994Z" transform="translate(0 -2.82178)"/><path class="cls-6" d="M289.61623,410.60884a7.68555,7.68555,0,1,1-7.6855,7.6875,7.68614,7.68614,0,0,1,7.6855-7.6875m0-3a10.68555,10.68555,0,1,0,10.6836,10.6875,10.69861,10.69861,0,0,0-10.6836-10.6875Z" transform="translate(0 -2.82178)"/><rect class="cls-5" x="294.25103" y="406.20506" width="224.9004" height="18.4746"/><path class="cls-6" d="M517.65143,410.52684v15.4746H295.751v-15.4746h221.9004m3-3H292.751v21.4746h227.9004v-21.4746Z" transform="translate(0 -2.82178)"/><path class="cls-19" d="M520.30323,427.50144a1.49947,1.49947,0,0,1-1.4995-1.5v-15.4883a1.50013,1.50013,0,0,1,2.5625-1.059l7.7764,7.8007a1.50069,1.50069,0,0,1-.0078,2.126l-7.7764,7.6875A1.5,1.5,0,0,1,520.30323,427.50144Z" transform="translate(0 -2.82178)"/><path class="cls-6" d="M520.30373,410.51314l7.7764,7.8008-7.7764,7.6875v-15.4883m-.0005-3a3.00026,3.00026,0,0,0-2.9995,3v15.4883a3.00009,3.00009,0,0,0,5.1094,2.1333l7.7764-7.6875a3.00006,3.00006,0,0,0,.0151-4.2514l-7.7764-7.8008a2.999,2.999,0,0,0-2.125-.8819Z" transform="translate(0 -2.82178)"/><rect class="cls-19" x="288.11623" y="406.20506" width="9.1348" height="18.4746" rx="1.5"/><path class="cls-6" d="M295.751,410.52684v15.4746h-6.1348v-15.4746h6.1348m0-3h-6.1348a3.0002,3.0002,0,0,0-3,3v15.4746a3.00013,3.00013,0,0,0,3,3h6.1348a3.00013,3.00013,0,0,0,3-3v-15.4746a3.0002,3.0002,0,0,0-3-3Z" transform="translate(0 -2.82178)"/><line class="cls-8" x1="722.46583" y1="425.17966" y2="425.17966"/><line class="cls-20" x1="448.67193" y1="116.68016" x2="367.98443" y2="116.68016"/><line class="cls-20" x1="538.45663" y1="136.17916" x2="428.96243" y2="136.17916"/><line class="cls-20" x1="345.10943" y1="140.06546" x2="309.92043" y2="140.06546"/><line class="cls-20" x1="708.05523" y1="181.09176" x2="672.86623" y2="181.09176"/><line class="cls-20" x1="496.67193" y1="116.68016" x2="460.98443" y2="116.68016"/><polyline class="cls-20" points="75.708 242.421 82.036 248.75 95.115 235.672"/><line class="cls-20" x1="520.68753" y1="80.09176" x2="504.00003" y2="80.09176"/><line class="cls-20" x1="512.34383" y1="88.43556" x2="512.34383" y2="71.74806"/><line class="cls-20" x1="302.86823" y1="145.96536" x2="291.06843" y2="134.16556"/><line class="cls-20" x1="291.06843" y1="145.96536" x2="302.86823" y2="134.16556"/><line class="cls-20" x1="172.87403" y1="48.42916" x2="92.18653" y2="48.42916"/><line class="cls-20" x1="117.37993" y1="61.17866" x2="81.69243" y2="61.17866"/><line class="cls-20" x1="171.37703" y1="35.68016" x2="135.68953" y2="35.68016"/><path class="cls-17" d="M655.80083,183.917a5.1133,5.1133,0,1,1-5.1172-5.1172A5.11753,5.11753,0,0,1,655.80083,183.917Z" transform="translate(0 -2.82178)"/><path class="cls-6" d="M447.897,15.64062l-1.69922,4.78321h-2.45507l5.88476-16.67041H452.691l6.13769,16.67041h-2.627l-1.75879-4.78321Zm5.93946-2.09472c-1.51172-4.21778-2.36328-6.53076-2.73145-7.84424h-.02441c-.40821,1.45752-1.35742,4.2373-2.57422,7.84424Z" transform="translate(0 -2.82178)"/><path class="cls-6" d="M461.0728,11.2832c0-1.05566,0-2.14013-.02343-3.07861h2.28808c.05957.35156.09375,1.55176.0918,1.92041a3.8142,3.8142,0,0,1,3.78809-2.2085c2.32129,0,4.07617,1.45118,4.07617,4.665v7.84229h-2.35645V12.87207c0-1.75439-.66992-2.95019-2.46386-2.95019-2.13575,0-3.04395,1.56884-3.04395,3.96679v6.53516H461.0728Z" transform="translate(0 -2.82178)"/><path class="cls-6" d="M485.03667,19.24756c0,3.917-1.584,6.19482-5.69726,6.19482-3.85059,0-4.93946-2.15576-5.14063-3.76172h2.40235a2.62837,2.62837,0,0,0,2.84082,1.92481c2.6621,0,3.29687-1.67822,3.29687-4.41016v-.90967a3.7,3.7,0,0,1-3.74609,2.062c-3.04785,0-5.05567-2.4878-5.05567-6.01172,0-3.95606,2.31543-6.41944,5.28907-6.41944,2.28417,0,3.2539,1.07569,3.51269,1.83936.02441-.51025.08106-1.30664.10547-1.55127h2.22949c-.01074.78125-.03711,2.3501-.03711,3.52393Zm-8.66015-5.01416c0,2.48535,1.2832,4.13525,3.18359,4.13525,2.52051,0,3.24707-1.69775,3.24707-4.28369,0-2.61182-.65527-4.20019-3.1748-4.20019C477.52593,9.88477,476.37652,11.62793,476.37652,14.2334Z" transform="translate(0 -2.82178)"/><path class="cls-6" d="M498.50933,16.86475c0,1.187.01269,2.76464.02441,3.55908h-2.29785c-.04785-.32276-.07226-1.04932-.083-1.75a3.60388,3.60388,0,0,1-3.63476,2.03808c-2.14258,0-4.0459-1.11914-4.0459-4.48632v-8.021H490.816v7.52588c0,1.55566.48633,2.96533,2.4043,2.96533,2.11035,0,2.93261-1.16309,2.93261-4.09375V8.20459h2.35645Z" transform="translate(0 -2.82178)"/><path class="cls-6" d="M502.00542,20.42383V2.82178h2.35645v17.602Z" transform="translate(0 -2.82178)"/><path class="cls-6" d="M517.01909,17.66357a20.39852,20.39852,0,0,0,.168,2.76026h-2.2539a6.387,6.387,0,0,1-.19434-1.521c-.42969.79-1.377,1.80908-3.707,1.80908-2.89356,0-4.126-1.88769-4.126-3.75293,0-2.73877,2.16016-3.99316,5.78223-3.99316h2.01855v-.98437c0-1.03614-.33886-2.2627-2.48535-2.2627-1.92285,0-2.26074.93408-2.4707,1.87451H507.482c.165-1.77832,1.26563-3.6875,4.81739-3.67676,3.042.01123,4.71972,1.23926,4.71972,4.04346Zm-2.2998-3.12011H512.858c-2.3584,0-3.55664.66308-3.55664,2.28027a2.0364,2.0364,0,0,0,2.25879,2.08594c2.78809,0,3.15918-1.8877,3.15918-3.98877Z" transform="translate(0 -2.82178)"/><path class="cls-6" d="M520.53374,11.52344c0-1.6128-.01269-2.59668-.02441-3.31885h2.31055c.03515.32959.07031,1.3374.07031,2.42627a4.23893,4.23893,0,0,1,4.07812-2.71436v2.32178c-2.49609.04785-4.07812,1.23047-4.07812,4.37061v5.81494h-2.35645Z" transform="translate(0 -2.82178)"/><path class="cls-6" d="M36.14263,175.82959h2.47363v6.87305h8.31348v-6.87305h2.47461V192.5H46.92974v-7.70264H38.61626V192.5H36.14263Z" transform="translate(0 -2.82178)"/><path class="cls-6" d="M57.26861,177.92383H51.94439v-2.09424H65.08208v2.09424H59.75591V192.5h-2.4873Z" transform="translate(0 -2.82178)"/><path class="cls-6" d="M81.77739,185.55664c0-3.04834.03516-6.20361.10743-7.98193h-.09375c-.72657,2.83447-3.2295,9.68652-5.082,14.92529H74.52056c-1.40137-4.32275-3.99121-12.023-4.73731-14.96h-.081c.13086,1.93115.19043,5.58154.19043,8.43994v6.52H67.58208V175.82959h3.68946c1.78027,5.01855,3.93164,11.46436,4.49023,13.65527h.03711c.39551-1.71533,2.959-8.76123,4.80957-13.65527h3.57812V192.5H81.77739Z" transform="translate(0 -2.82178)"/><path class="cls-6" d="M88.60552,175.82959h2.47363v14.57568h8.6211L99.3731,192.5H88.60552Z" transform="translate(0 -2.82178)"/><path class="cls-6" d="M283.3731,72.21289c0,3.77686-1.4375,5.19531-4.38965,5.19531a8.82391,8.82391,0,0,1-1.85449-.17675V75.19336a10.69065,10.69065,0,0,0,1.56445.10937c1.93945,0,2.20605-1.41406,2.20605-2.98291V60.49756h2.47364Z" transform="translate(0 -2.82178)"/><path class="cls-6" d="M296.00591,74.40771a20.39682,20.39682,0,0,0,.168,2.76026H293.92a6.387,6.387,0,0,1-.19433-1.521c-.42969.79-1.377,1.80908-3.707,1.80908-2.89356,0-4.126-1.88769-4.126-3.75293,0-2.73876,2.16016-3.99316,5.78223-3.99316h2.01855v-.98437c0-1.03614-.33887-2.2627-2.48535-2.2627-1.92285,0-2.26074.93408-2.4707,1.87451H286.4688c.165-1.77832,1.26563-3.6875,4.81738-3.67676,3.042.01124,4.71973,1.23926,4.71973,4.04346Zm-2.2998-3.12011h-1.86133c-2.3584,0-3.55664.66308-3.55664,2.28027a2.0364,2.0364,0,0,0,2.25879,2.08594c2.78808,0,3.15918-1.8877,3.15918-3.98877Z" transform="translate(0 -2.82178)"/><path class="cls-6" d="M300.25005,64.94873c1.55078,4.83106,2.71,8.54248,3.05664,10.05713h.02442c.30761-1.48828,1.58593-5.15186,3.2705-10.05713h2.38477l-4.46,12.21924h-2.56348l-4.24023-12.21924Z" transform="translate(0 -2.82178)"/><path class="cls-6" d="M319.98247,74.40771a20.39852,20.39852,0,0,0,.168,2.76026h-2.2539a6.38689,6.38689,0,0,1-.19434-1.521c-.42969.79-1.377,1.80908-3.707,1.80908-2.89356,0-4.126-1.88769-4.126-3.75293,0-2.73876,2.16016-3.99316,5.78223-3.99316H317.67v-.98437c0-1.03614-.33886-2.2627-2.48535-2.2627-1.92285,0-2.26074.93408-2.4707,1.87451h-2.26856c.165-1.77832,1.26563-3.6875,4.81739-3.67676,3.042.01124,4.71972,1.23926,4.71972,4.04346Zm-2.2998-3.12011h-1.86133c-2.3584,0-3.55664.66308-3.55664,2.28027a2.0364,2.0364,0,0,0,2.25879,2.08594c2.78808,0,3.15918-1.8877,3.15918-3.98877Z" transform="translate(0 -2.82178)"/><path class="cls-6" d="M325.09185,72.481c.43847,1.938,1.77441,2.95263,4.09765,2.95263,2.47266,0,3.46289-1.13281,3.46289-2.64062,0-1.61231-.81835-2.48291-4.06738-3.26416-4.043-.97559-5.36035-2.37842-5.36035-4.70459,0-2.55713,1.8916-4.5669,5.65527-4.5669,4.05664,0,5.71485,2.311,5.94141,4.54737H332.3106c-.27539-1.39649-1.13477-2.59473-3.51367-2.59473-1.92188,0-3.01368.85547-3.01368,2.36768,0,1.48828.89746,2.07763,3.77539,2.769,4.77149,1.1543,5.65332,2.99609,5.65332,5.17578,0,2.75586-2.05078,4.85938-6.19042,4.85938-4.2002,0-6.085-2.252-6.44141-4.90088Z" transform="translate(0 -2.82178)"/><path class="cls-6" d="M347.98638,73.38867a4.9002,4.9002,0,0,1-5.13574,4.06738c-3.44825,0-5.50782-2.46142-5.50782-6.32763,0-3.48487,2.00293-6.46778,5.66211-6.46778a4.613,4.613,0,0,1,4.98145,4.13477h-2.3252a2.56763,2.56763,0,0,0-2.70214-2.19922c-2.042,0-3.19825,1.75635-3.19825,4.45117,0,2.74707,1.13672,4.48438,3.13282,4.48438a2.732,2.732,0,0,0,2.75585-2.14307Z" transform="translate(0 -2.82178)"/><path class="cls-6" d="M350.44927,68.26758c0-1.61279-.0127-2.59668-.02441-3.31885h2.31054c.03516.32959.07031,1.3374.07031,2.42627a4.239,4.239,0,0,1,4.07813-2.71436v2.32178c-2.49609.04785-4.07813,1.23047-4.07813,4.37061V77.168h-2.35644Z" transform="translate(0 -2.82178)"/><path class="cls-6" d="M358.94439,59.56592h2.35644v2.71h-2.35644Zm0,5.38281h2.35644V77.168h-2.35644Z" transform="translate(0 -2.82178)"/><path class="cls-6" d="M367.14605,75.74072v6.20606h-2.34571V67.92285c0-.99512,0-2.01855-.02343-2.97412H367.066a18.3876,18.3876,0,0,1,.08008,1.84375,4.14209,4.14209,0,0,1,3.9082-2.13184c2.81055,0,4.87695,2.3545,4.87695,6.08594,0,4.353-2.35937,6.70947-5.31836,6.70947A3.65079,3.65079,0,0,1,367.14605,75.74072Zm6.36718-4.90283c0-2.52246-1.125-4.1958-3.11914-4.1958-2.41406,0-3.35156,1.5293-3.35156,4.40088,0,2.78027.7832,4.45605,3.19336,4.45605C372.38238,75.499,373.51323,73.74658,373.51323,70.83789Z" transform="translate(0 -2.82178)"/><path class="cls-6" d="M377.08159,64.94873H379.15V61.40088h2.35743v3.54785h2.63671v1.88086h-2.63671v6.939c0,1.13672.2871,1.69776,1.373,1.69776a4.75061,4.75061,0,0,0,1.00977-.08985v1.73243a6.071,6.071,0,0,1-1.91406.227c-1.99415,0-2.82618-1.04053-2.82618-3.0918V66.82959h-2.06836Z" transform="translate(0 -2.82178)"/><path class="cls-6" d="M643.6021,113.55176c.43848,1.938,1.77442,2.95263,4.09766,2.95263,2.47265,0,3.46289-1.13281,3.46289-2.64062,0-1.61231-.81836-2.48291-4.06738-3.26416-4.043-.97559-5.36036-2.37842-5.36036-4.70459,0-2.55713,1.89161-4.5669,5.65528-4.5669,4.05664,0,5.71484,2.311,5.9414,4.54737h-2.51074c-.27539-1.39649-1.13476-2.59473-3.51367-2.59473-1.92188,0-3.01367.85547-3.01367,2.36768,0,1.48828.89746,2.07763,3.77539,2.769,4.77148,1.1543,5.65332,2.99609,5.65332,5.17578,0,2.75586-2.05078,4.85938-6.19043,4.85938-4.2002,0-6.085-2.252-6.44141-4.90088Z" transform="translate(0 -2.82178)"/><path class="cls-6" d="M670.41167,113.43408c-.72656,2.88233-2.87988,5.01856-6.73828,5.01856-5.042,0-7.55371-3.77491-7.55371-8.49219,0-4.53662,2.52832-8.63233,7.6543-8.63233,4.02832,0,6.16406,2.31055,6.63965,5.09717H667.94a4.034,4.034,0,0,0-4.25976-3.06787c-3.54395,0-4.9795,3.21631-4.9795,6.52442,0,3.18554,1.34668,6.5415,5.0752,6.5415a4.10369,4.10369,0,0,0,4.15039-2.98926Z" transform="translate(0 -2.82178)"/><path class="cls-6" d="M675.08941,113.55176c.43847,1.938,1.77441,2.95263,4.09765,2.95263,2.47266,0,3.46289-1.13281,3.46289-2.64062,0-1.61231-.81836-2.48291-4.06738-3.26416-4.043-.97559-5.36035-2.37842-5.36035-4.70459,0-2.55713,1.8916-4.5669,5.65527-4.5669,4.05664,0,5.71485,2.311,5.94141,4.54737h-2.51074c-.27539-1.39649-1.13477-2.59473-3.51368-2.59473-1.92187,0-3.01367.85547-3.01367,2.36768,0,1.48828.89746,2.07763,3.77539,2.769,4.77149,1.1543,5.65332,2.99609,5.65332,5.17578,0,2.75586-2.05078,4.85938-6.19043,4.85938-4.20019,0-6.085-2.252-6.4414-4.90088Z" transform="translate(0 -2.82178)"/><path class="cls-6" d="M689.92144,113.55176c.43847,1.938,1.77441,2.95263,4.09765,2.95263,2.47266,0,3.46289-1.13281,3.46289-2.64062,0-1.61231-.81835-2.48291-4.06738-3.26416-4.043-.97559-5.36035-2.37842-5.36035-4.70459,0-2.55713,1.8916-4.5669,5.65527-4.5669,4.05664,0,5.71485,2.311,5.94141,4.54737h-2.51074c-.27539-1.39649-1.13477-2.59473-3.51367-2.59473-1.92188,0-3.01368.85547-3.01368,2.36768,0,1.48828.89746,2.07763,3.77539,2.769,4.77149,1.1543,5.65332,2.99609,5.65332,5.17578,0,2.75586-2.05078,4.85938-6.19042,4.85938-4.2002,0-6.085-2.252-6.44141-4.90088Z" transform="translate(0 -2.82178)"/></g></g></g></svg>