<svg xmlns="http://www.w3.org/2000/svg" width="288" height="70.245" viewBox="0 0 288 70.245">
  <g id="Practera-logo-2" transform="translate(5.349 3.896)">
    <g id="Group_1436" data-name="Group 1436">
      <path id="Path_2439" data-name="Path 2439" d="M88.943,9.744h-10.3a2.766,2.766,0,0,0-2,.786,2.649,2.649,0,0,0-.81,1.98V43.8h6.867V32.159h5.771q5.913,0,9.061-2.885t3.148-8.323a11.169,11.169,0,0,0-3.029-8.036Q94.617,9.746,88.943,9.744Zm-.716,16.739H82.695V15.467h5.484a5.639,5.639,0,0,1,4.126,1.43A5.371,5.371,0,0,1,93.759,20.9Q93.759,26.481,88.227,26.483Z"/>
      <path id="Path_2440" data-name="Path 2440" d="M111.07,22.715V19.95h-6.343V43.8h6.582V27.485a9.041,9.041,0,0,1,6.295-2.67,9.923,9.923,0,0,1,2.909.523l1.336-5.15a7.116,7.116,0,0,0-3.625-.857A9.754,9.754,0,0,0,111.07,22.715Z"/>
      <path id="Path_2441" data-name="Path 2441" d="M141.164,22.191a8.827,8.827,0,0,0-6.82-2.861,9.935,9.935,0,0,0-7.893,3.434,13.583,13.583,0,0,0-3.028,9.109,13.4,13.4,0,0,0,2.98,9.108,9.935,9.935,0,0,0,7.893,3.434,8.77,8.77,0,0,0,6.772-2.861v2.241h5.962V19.95h-5.866Zm-5.771,16.883a4.866,4.866,0,0,1-4.054-1.812,8.588,8.588,0,0,1-1.43-5.389,8.591,8.591,0,0,1,1.43-5.39,4.922,4.922,0,0,1,4.1-1.812,4.87,4.87,0,0,1,4.054,1.812,8.591,8.591,0,0,1,1.43,5.39Q140.925,39.075,135.393,39.074Z"/>
      <path id="Path_2442" data-name="Path 2442" d="M163.674,38.98a5.3,5.3,0,0,1-4.079-1.741Q158,35.5,158,31.922a7.785,7.785,0,0,1,1.669-5.439,5.756,5.756,0,0,1,9.3,1.287L173.88,25a9.442,9.442,0,0,0-4.1-4.268,12.685,12.685,0,0,0-6.01-1.406,11.88,11.88,0,0,0-8.893,3.432,12.585,12.585,0,0,0-3.363,9.2q0,5.82,3.363,9.109a11.482,11.482,0,0,0,8.369,3.291,12.6,12.6,0,0,0,6.653-1.717,10.9,10.9,0,0,0,4.267-4.673l-4.719-2.718Q167.1,38.98,163.674,38.98Z"/>
      <path id="Path_2443" data-name="Path 2443" d="M189.284,38.551a3.506,3.506,0,0,1-2.313-.811,3.351,3.351,0,0,1-.977-2.719V24.432h7.724V19.95h-7.724V12.558h-6.487V19.95h-3.576v4.482h3.576V35.593a9.058,9.058,0,0,0,2.146,6.439,7.838,7.838,0,0,0,6.01,2.288,12,12,0,0,0,7.487-2.432L193.1,37.262A6.945,6.945,0,0,1,189.284,38.551Z"/>
      <path id="Path_2444" data-name="Path 2444" d="M217.4,32.518a6.819,6.819,0,0,0,1.836-4.89,7.23,7.23,0,0,0-2.909-6.081,11.368,11.368,0,0,0-7.1-2.216,11.58,11.58,0,0,0-9.109,3.743,13.222,13.222,0,0,0-3.34,9.133,12.181,12.181,0,0,0,3.243,8.752,11.484,11.484,0,0,0,8.729,3.409,16.124,16.124,0,0,0,10.253-3.529l-2.623-4.2a11.974,11.974,0,0,1-7.2,2.527q-5.293,0-6.3-4.722h8.873Q215.559,34.448,217.4,32.518Zm-14.664-2.457a6.923,6.923,0,0,1,2.288-4.294,6.268,6.268,0,0,1,4.15-1.525,4.73,4.73,0,0,1,3.03.93,2.812,2.812,0,0,1,1.168,2.264,2.457,2.457,0,0,1-.788,1.909,3.181,3.181,0,0,1-2.218.716Z"/>
      <path id="Path_2445" data-name="Path 2445" d="M230.058,22.715V19.95h-6.343V43.8H230.3V27.485a9.041,9.041,0,0,1,6.295-2.67,9.917,9.917,0,0,1,2.909.523l1.337-5.15a7.119,7.119,0,0,0-3.625-.857A9.754,9.754,0,0,0,230.058,22.715Z"/>
      <path id="Path_2446" data-name="Path 2446" d="M260.153,19.95v2.241a8.827,8.827,0,0,0-6.82-2.861,9.935,9.935,0,0,0-7.893,3.434,13.583,13.583,0,0,0-3.028,9.109,13.4,13.4,0,0,0,2.98,9.108,9.935,9.935,0,0,0,7.893,3.434,8.769,8.769,0,0,0,6.772-2.861v2.241h5.962V19.95Zm-5.771,19.124a4.863,4.863,0,0,1-4.053-1.812,8.582,8.582,0,0,1-1.431-5.389,8.585,8.585,0,0,1,1.431-5.39,5.494,5.494,0,0,1,8.155,0,8.585,8.585,0,0,1,1.43,5.39Q259.914,39.075,254.382,39.074Z"/>
    </g>
    <g id="Group_1437" data-name="Group 1437">
      <rect id="Rectangle_550" data-name="Rectangle 550" width="63.588" height="63.588" transform="translate(-5.349 -3.896)" fill="none"/>
      <path id="Path_2447" data-name="Path 2447" d="M45.9,27.989A39.679,39.679,0,0,0,41.373,9.663c11.775,4.75,16.242,19.683,8.58,29.968-5.588,7.495-14.643,9.3-23.41,7.484-4.123-.855-10.089-2.478-12.863-5.894-2.454-3.025-2.082-6.9-.111-10.021a27.639,27.639,0,0,0,13.494,7.859c4.5,1.1,9.413,1.468,13.459-1.254A11.972,11.972,0,0,0,45.9,27.991ZM.661,14.829A19.708,19.708,0,0,1,22.458.2c9.608,1.373,15.535,9.154,18.071,18a29.267,29.267,0,0,1,1.363,10.482c-.459,4.683-4.733,7.382-9.125,7.211a27.175,27.175,0,0,0,.191-15.12c-1.284-4.672-3.464-9.329-8.024-11.537a.115.115,0,0,0,.028-.008c-9.87-4.8-19.913,5.749-24.74,13.3A20.318,20.318,0,0,1,.661,14.829ZM13.753,46.471a40.225,40.225,0,0,0,18.2,5.306,19.976,19.976,0,0,1-28.32-4.06A20.128,20.128,0,0,1,.122,33.943c.635-5.773,3.938-10.822,7.9-14.92l0,.022c2.6-2.682,6.582-6.484,10.433-7.034,3.8-.543,7.028,1.649,8.743,4.886A27.8,27.8,0,0,0,9.535,30.109C6.431,35.725,8.074,43.193,13.753,46.471Z" fill="#00c3dc" fill-rule="evenodd"/>
    </g>
    <g id="Group_1438" data-name="Group 1438" opacity="0.6">
      <path id="Path_2448" data-name="Path 2448" d="M78.211,58.4V63h-.954V51.7h3.85a4.056,4.056,0,0,1,2.782.9,3.135,3.135,0,0,1,1.021,2.477,3.1,3.1,0,0,1-.982,2.456,4.171,4.171,0,0,1-2.845.866Zm0-.808h2.9a3.057,3.057,0,0,0,2.119-.66,2.362,2.362,0,0,0,.729-1.843,2.47,2.47,0,0,0-.725-1.87,2.922,2.922,0,0,0-2.061-.711H78.211Z" fill="#231f20"/>
      <path id="Path_2449" data-name="Path 2449" d="M86.214,58.68a4.93,4.93,0,0,1,.47-2.181,3.525,3.525,0,0,1,3.271-2.049,3.456,3.456,0,0,1,2.717,1.176,4.528,4.528,0,0,1,1.04,3.116v.194a4.987,4.987,0,0,1-.469,2.193,3.512,3.512,0,0,1-1.324,1.5,3.626,3.626,0,0,1-1.948.528,3.458,3.458,0,0,1-2.713-1.176,4.522,4.522,0,0,1-1.044-3.117Zm.932.256a3.813,3.813,0,0,0,.78,2.473,2.64,2.64,0,0,0,4.083,0,3.94,3.94,0,0,0,.78-2.55V58.68a4.291,4.291,0,0,0-.357-1.762,2.87,2.87,0,0,0-1-1.238,2.562,2.562,0,0,0-1.475-.438,2.485,2.485,0,0,0-2.026.974,3.945,3.945,0,0,0-.783,2.55Z" fill="#231f20"/>
      <path id="Path_2450" data-name="Path 2450" d="M97.64,61.071l.14.722.186-.761L99.984,54.6h.792l2,6.373.217.885.179-.815L104.89,54.6h.962L103.407,63h-.791l-2.158-6.66-.1-.458-.1.466L98.137,63h-.792l-2.437-8.4h.954Z" fill="#231f20"/>
      <path id="Path_2451" data-name="Path 2451" d="M110.867,63.159a3.646,3.646,0,0,1-1.937-.528,3.6,3.6,0,0,1-1.347-1.471,4.585,4.585,0,0,1-.481-2.115v-.334a4.93,4.93,0,0,1,.47-2.181,3.727,3.727,0,0,1,1.308-1.525,3.223,3.223,0,0,1,1.816-.555,3.033,3.033,0,0,1,2.426,1.044,4.236,4.236,0,0,1,.9,2.852v.52h-5.992v.179a3.51,3.51,0,0,0,.819,2.379,2.605,2.605,0,0,0,2.061.951,3.012,3.012,0,0,0,1.315-.272,2.9,2.9,0,0,0,1.036-.869l.583.442A3.388,3.388,0,0,1,110.867,63.159Zm-.171-7.917a2.321,2.321,0,0,0-1.766.768,3.555,3.555,0,0,0-.873,2.065h5.037v-.1A3.09,3.09,0,0,0,112.4,56,2.143,2.143,0,0,0,110.7,55.242Z" fill="#231f20"/>
      <path id="Path_2452" data-name="Path 2452" d="M119.708,55.4a3.5,3.5,0,0,0-.629-.055,2.272,2.272,0,0,0-1.471.486,2.654,2.654,0,0,0-.858,1.408V63h-.923V54.6h.908l.015,1.335a2.471,2.471,0,0,1,2.368-1.49,1.53,1.53,0,0,1,.613.1Z" fill="#231f20"/>
      <path id="Path_2453" data-name="Path 2453" d="M121.121,52.179a.624.624,0,0,1,.17-.443.609.609,0,0,1,.466-.181.622.622,0,0,1,.47.181.615.615,0,0,1,.174.443.6.6,0,0,1-.174.44.631.631,0,0,1-.47.177.6.6,0,0,1-.636-.617ZM122.215,63h-.931V54.6h.931Z" fill="#231f20"/>
      <path id="Path_2454" data-name="Path 2454" d="M125.623,54.6l.031,1.436a3.337,3.337,0,0,1,1.18-1.184,3.067,3.067,0,0,1,1.56-.407,2.515,2.515,0,0,1,2.01.761,3.429,3.429,0,0,1,.668,2.282V63h-.924V57.485a2.568,2.568,0,0,0-.477-1.677,1.87,1.87,0,0,0-1.5-.551,2.35,2.35,0,0,0-1.526.54,3.174,3.174,0,0,0-.982,1.455V63h-.923V54.6Z" fill="#231f20"/>
      <path id="Path_2455" data-name="Path 2455" d="M133.1,58.727a5.059,5.059,0,0,1,.873-3.125,2.818,2.818,0,0,1,2.371-1.152,2.919,2.919,0,0,1,2.608,1.366L139,54.6h.869v8.228a3.553,3.553,0,0,1-.908,2.569,3.245,3.245,0,0,1-2.461.947,3.737,3.737,0,0,1-1.672-.392,3.246,3.246,0,0,1-1.254-1.044l.52-.559a2.941,2.941,0,0,0,2.344,1.211,2.385,2.385,0,0,0,1.817-.687,2.741,2.741,0,0,0,.675-1.9V61.917a3,3,0,0,1-2.6,1.242,2.8,2.8,0,0,1-2.344-1.164,5.074,5.074,0,0,1-.885-3.144Zm.939.163a4.374,4.374,0,0,0,.644,2.534,2.085,2.085,0,0,0,1.816.928,2.483,2.483,0,0,0,2.43-1.537v-3.9a2.652,2.652,0,0,0-.939-1.23,2.535,2.535,0,0,0-1.475-.423,2.11,2.11,0,0,0-1.824.92A4.677,4.677,0,0,0,134.037,58.89Z" fill="#231f20"/>
      <path id="Path_2456" data-name="Path 2456" d="M149.406,63.159a3.649,3.649,0,0,1-1.937-.528,3.6,3.6,0,0,1-1.346-1.471,4.573,4.573,0,0,1-.482-2.115v-.334a4.944,4.944,0,0,1,.47-2.181,3.727,3.727,0,0,1,1.308-1.525,3.226,3.226,0,0,1,1.816-.555,3.033,3.033,0,0,1,2.426,1.044,4.231,4.231,0,0,1,.9,2.852v.52h-5.992v.179a3.515,3.515,0,0,0,.819,2.379,2.605,2.605,0,0,0,2.061.951,3.009,3.009,0,0,0,1.315-.272,2.911,2.911,0,0,0,1.037-.869l.582.442A3.388,3.388,0,0,1,149.406,63.159Zm-.171-7.917a2.324,2.324,0,0,0-1.766.768,3.555,3.555,0,0,0-.873,2.065h5.038v-.1A3.09,3.09,0,0,0,150.943,56,2.141,2.141,0,0,0,149.235,55.242Z" fill="#231f20"/>
      <path id="Path_2457" data-name="Path 2457" d="M157.005,58.013l2.267-3.408h1.1l-2.849,4.122L160.5,63H159.4l-2.391-3.555L154.622,63h-1.094l2.965-4.277L153.644,54.6h1.1Z" fill="#231f20"/>
      <path id="Path_2458" data-name="Path 2458" d="M168.85,58.89a5.06,5.06,0,0,1-.869,3.116,2.768,2.768,0,0,1-2.329,1.153,3.108,3.108,0,0,1-2.639-1.211v4.285h-.924V54.6h.862L163,55.793a2.977,2.977,0,0,1,2.631-1.343,2.791,2.791,0,0,1,2.363,1.141,5.169,5.169,0,0,1,.858,3.167Zm-.931-.163a4.326,4.326,0,0,0-.66-2.538,2.128,2.128,0,0,0-1.84-.932,2.449,2.449,0,0,0-2.406,1.607v4.028a2.458,2.458,0,0,0,.955,1.1,2.758,2.758,0,0,0,1.467.38,2.108,2.108,0,0,0,1.828-.935A4.709,4.709,0,0,0,167.919,58.727Z" fill="#231f20"/>
      <path id="Path_2459" data-name="Path 2459" d="M174.16,63.159a3.644,3.644,0,0,1-1.937-.528,3.6,3.6,0,0,1-1.347-1.471,4.585,4.585,0,0,1-.481-2.115v-.334a4.943,4.943,0,0,1,.469-2.181,3.742,3.742,0,0,1,1.308-1.525,3.229,3.229,0,0,1,1.817-.555,3.029,3.029,0,0,1,2.425,1.044,4.231,4.231,0,0,1,.9,2.852v.52h-5.992v.179a3.514,3.514,0,0,0,.818,2.379,2.608,2.608,0,0,0,2.061.951,3.014,3.014,0,0,0,1.316-.272,2.908,2.908,0,0,0,1.036-.869l.582.442A3.386,3.386,0,0,1,174.16,63.159Zm-.171-7.917a2.321,2.321,0,0,0-1.766.768,3.548,3.548,0,0,0-.873,2.065h5.037v-.1A3.085,3.085,0,0,0,175.7,56,2.139,2.139,0,0,0,173.989,55.242Z" fill="#231f20"/>
      <path id="Path_2460" data-name="Path 2460" d="M183,55.4a3.5,3.5,0,0,0-.629-.055,2.272,2.272,0,0,0-1.471.486,2.654,2.654,0,0,0-.858,1.408V63h-.923V54.6h.908l.015,1.335a2.471,2.471,0,0,1,2.368-1.49,1.53,1.53,0,0,1,.613.1Z" fill="#231f20"/>
      <path id="Path_2461" data-name="Path 2461" d="M184.413,52.179a.625.625,0,0,1,.171-.443.609.609,0,0,1,.466-.181.618.618,0,0,1,.469.181.612.612,0,0,1,.175.443.6.6,0,0,1-.175.44.627.627,0,0,1-.469.177.6.6,0,0,1-.637-.617ZM185.508,63h-.932V54.6h.932Z" fill="#231f20"/>
      <path id="Path_2462" data-name="Path 2462" d="M191.283,63.159a3.649,3.649,0,0,1-1.937-.528A3.6,3.6,0,0,1,188,61.16a4.585,4.585,0,0,1-.481-2.115v-.334a4.93,4.93,0,0,1,.47-2.181,3.727,3.727,0,0,1,1.308-1.525,3.226,3.226,0,0,1,1.816-.555,3.033,3.033,0,0,1,2.426,1.044,4.231,4.231,0,0,1,.9,2.852v.52h-5.992v.179a3.515,3.515,0,0,0,.819,2.379,2.605,2.605,0,0,0,2.061.951,3.012,3.012,0,0,0,1.315-.272,2.911,2.911,0,0,0,1.037-.869l.582.442A3.388,3.388,0,0,1,191.283,63.159Zm-.171-7.917a2.324,2.324,0,0,0-1.766.768,3.555,3.555,0,0,0-.873,2.065h5.038v-.1A3.1,3.1,0,0,0,192.82,56,2.142,2.142,0,0,0,191.112,55.242Z" fill="#231f20"/>
      <path id="Path_2463" data-name="Path 2463" d="M197.128,54.6l.031,1.436a3.337,3.337,0,0,1,1.18-1.184,3.067,3.067,0,0,1,1.56-.407,2.515,2.515,0,0,1,2.01.761,3.429,3.429,0,0,1,.668,2.282V63h-.924V57.485a2.568,2.568,0,0,0-.477-1.677,1.87,1.87,0,0,0-1.5-.551,2.345,2.345,0,0,0-1.525.54,3.159,3.159,0,0,0-.982,1.455V63h-.924V54.6Z" fill="#231f20"/>
      <path id="Path_2464" data-name="Path 2464" d="M206.419,52.455V54.6h1.739v.761h-1.739v5.6a1.764,1.764,0,0,0,.252,1.042.979.979,0,0,0,.843.342,5.761,5.761,0,0,0,.753-.078l.038.754a3.036,3.036,0,0,1-.993.131,1.657,1.657,0,0,1-1.39-.555,2.612,2.612,0,0,1-.434-1.634v-5.6h-1.545V54.6h1.545v-2.15Z" fill="#231f20"/>
      <path id="Path_2465" data-name="Path 2465" d="M210.029,52.179a.624.624,0,0,1,.17-.443.609.609,0,0,1,.466-.181.622.622,0,0,1,.47.181.615.615,0,0,1,.174.443.6.6,0,0,1-.174.44.631.631,0,0,1-.47.177.6.6,0,0,1-.636-.617ZM211.123,63h-.931V54.6h.931Z" fill="#231f20"/>
      <path id="Path_2466" data-name="Path 2466" d="M218.947,63a4.411,4.411,0,0,1-.178-1.172,3.244,3.244,0,0,1-1.246.982,3.822,3.822,0,0,1-1.6.345,2.818,2.818,0,0,1-1.96-.675,2.2,2.2,0,0,1-.749-1.708,2.251,2.251,0,0,1,1.021-1.941,4.9,4.9,0,0,1,2.845-.714h1.684v-.954a1.839,1.839,0,0,0-.555-1.417,2.293,2.293,0,0,0-1.618-.516,2.532,2.532,0,0,0-1.607.5,1.475,1.475,0,0,0-.637,1.195l-.931-.008a2.16,2.16,0,0,1,.931-1.735,3.588,3.588,0,0,1,2.29-.733,3.273,3.273,0,0,1,2.216.7,2.523,2.523,0,0,1,.835,1.96v3.974a4.93,4.93,0,0,0,.256,1.825V63Zm-2.918-.668a3.119,3.119,0,0,0,1.665-.45,2.649,2.649,0,0,0,1.067-1.2V58.835H217.1a4.166,4.166,0,0,0-2.174.509,1.526,1.526,0,0,0-.783,1.354,1.5,1.5,0,0,0,.523,1.172A1.975,1.975,0,0,0,216.029,62.336Z" fill="#231f20"/>
      <path id="Path_2467" data-name="Path 2467" d="M223.2,63h-.931V51.081h.931Z" fill="#231f20"/>
      <path id="Path_2468" data-name="Path 2468" d="M230.629,63H229.7V51.081h.931Z" fill="#231f20"/>
      <path id="Path_2469" data-name="Path 2469" d="M236.4,63.159a3.643,3.643,0,0,1-1.936-.528,3.591,3.591,0,0,1-1.347-1.471,4.585,4.585,0,0,1-.481-2.115v-.334a4.944,4.944,0,0,1,.469-2.181,3.734,3.734,0,0,1,1.308-1.525,3.229,3.229,0,0,1,1.817-.555,3.031,3.031,0,0,1,2.425,1.044,4.231,4.231,0,0,1,.9,2.852v.52h-5.993v.179a3.515,3.515,0,0,0,.819,2.379,2.608,2.608,0,0,0,2.061.951,3.014,3.014,0,0,0,1.316-.272,2.908,2.908,0,0,0,1.036-.869l.582.442A3.387,3.387,0,0,1,236.4,63.159Zm-.17-7.917a2.321,2.321,0,0,0-1.766.768,3.542,3.542,0,0,0-.873,2.065h5.037v-.1A3.085,3.085,0,0,0,237.941,56,2.139,2.139,0,0,0,236.234,55.242Z" fill="#231f20"/>
      <path id="Path_2470" data-name="Path 2470" d="M246.666,63a4.411,4.411,0,0,1-.178-1.172,3.252,3.252,0,0,1-1.246.982,3.822,3.822,0,0,1-1.6.345,2.818,2.818,0,0,1-1.96-.675,2.2,2.2,0,0,1-.749-1.708,2.248,2.248,0,0,1,1.021-1.941,4.9,4.9,0,0,1,2.844-.714h1.685v-.954a1.843,1.843,0,0,0-.555-1.417,2.294,2.294,0,0,0-1.619-.516,2.531,2.531,0,0,0-1.606.5,1.475,1.475,0,0,0-.637,1.195l-.931-.008a2.16,2.16,0,0,1,.931-1.735,3.588,3.588,0,0,1,2.29-.733,3.272,3.272,0,0,1,2.216.7,2.523,2.523,0,0,1,.834,1.96v3.974a4.926,4.926,0,0,0,.257,1.825V63Zm-2.919-.668a3.119,3.119,0,0,0,1.665-.45,2.652,2.652,0,0,0,1.068-1.2V58.835h-1.661a4.166,4.166,0,0,0-2.174.509,1.525,1.525,0,0,0-.784,1.354,1.5,1.5,0,0,0,.524,1.172A1.972,1.972,0,0,0,243.747,62.336Z" fill="#231f20"/>
      <path id="Path_2471" data-name="Path 2471" d="M253.761,55.4a3.5,3.5,0,0,0-.629-.055,2.272,2.272,0,0,0-1.471.486,2.654,2.654,0,0,0-.858,1.408V63h-.923V54.6h.908l.015,1.335a2.471,2.471,0,0,1,2.368-1.49,1.53,1.53,0,0,1,.613.1Z" fill="#231f20"/>
      <path id="Path_2472" data-name="Path 2472" d="M256.113,54.6l.031,1.436a3.337,3.337,0,0,1,1.18-1.184,3.067,3.067,0,0,1,1.56-.407,2.515,2.515,0,0,1,2.01.761,3.429,3.429,0,0,1,.668,2.282V63h-.924V57.485a2.568,2.568,0,0,0-.477-1.677,1.87,1.87,0,0,0-1.5-.551,2.35,2.35,0,0,0-1.526.54,3.174,3.174,0,0,0-.982,1.455V63h-.923V54.6Z" fill="#231f20"/>
      <path id="Path_2473" data-name="Path 2473" d="M263.906,52.179a.621.621,0,0,1,.171-.443.6.6,0,0,1,.465-.181.61.61,0,0,1,.645.624.6.6,0,0,1-.175.44.63.63,0,0,1-.47.177.6.6,0,0,1-.636-.617ZM265,63h-.931V54.6H265Z" fill="#231f20"/>
      <path id="Path_2474" data-name="Path 2474" d="M268.408,54.6l.031,1.436a3.337,3.337,0,0,1,1.18-1.184,3.067,3.067,0,0,1,1.56-.407,2.515,2.515,0,0,1,2.01.761,3.429,3.429,0,0,1,.668,2.282V63h-.924V57.485a2.568,2.568,0,0,0-.477-1.677,1.87,1.87,0,0,0-1.5-.551,2.345,2.345,0,0,0-1.525.54,3.159,3.159,0,0,0-.982,1.455V63h-.924V54.6Z" fill="#231f20"/>
      <path id="Path_2475" data-name="Path 2475" d="M275.883,58.727a5.059,5.059,0,0,1,.873-3.125,2.818,2.818,0,0,1,2.371-1.152,2.921,2.921,0,0,1,2.609,1.366l.046-1.211h.869v8.228a3.553,3.553,0,0,1-.908,2.569,3.245,3.245,0,0,1-2.46.947,3.744,3.744,0,0,1-1.673-.392,3.246,3.246,0,0,1-1.254-1.044l.52-.559a2.942,2.942,0,0,0,2.345,1.211,2.384,2.384,0,0,0,1.816-.687,2.732,2.732,0,0,0,.675-1.9V61.917a3,3,0,0,1-2.6,1.242,2.8,2.8,0,0,1-2.344-1.164,5.074,5.074,0,0,1-.885-3.144Zm.939.163a4.382,4.382,0,0,0,.644,2.534,2.087,2.087,0,0,0,1.817.928,2.482,2.482,0,0,0,2.429-1.537v-3.9a2.645,2.645,0,0,0-.939-1.23,2.531,2.531,0,0,0-1.475-.423,2.11,2.11,0,0,0-1.824.92A4.677,4.677,0,0,0,276.822,58.89Z" fill="#231f20"/>
    </g>
  </g>
</svg>
