<svg xmlns="http://www.w3.org/2000/svg" viewBox="0 0 365 365"><defs><style>.cls-1{fill:#f7df1e;}</style></defs><title>JavaScript</title><g id="Layer_2" data-name="Layer 2"><g id="Layer_1-2" data-name="Layer 1"><rect class="cls-1" width="365" height="365"/><path d="M95.9718,305.0207l27.9324-16.9042c5.3886,9.5543,10.29069,17.6382,22.04889,17.6382,11.27091,0,18.3768-4.409,18.3768-21.5581V167.5703h34.3008V284.6815c0,35.5267-20.82469,51.6973-51.2072,51.6973-27.43929,0-43.36719-14.2112-51.45229-31.361"/><path d="M217.26189,301.3452l27.9289-16.1707c7.3521,12.0067,16.9076,20.8264,33.8123,20.8264,14.2124,0,23.2754-7.1059,23.2754-16.9064,0-11.7606-9.3098-15.9262-24.9909-22.7841l-8.5729-3.6778c-24.7476-10.5335-41.1639-23.7639-41.1639-51.6956,0-25.7262,19.6006-45.3278,50.2281-45.3278,21.8062,0,37.4867,7.596,48.7559,27.4422l-26.7064,17.1498c-5.8806-10.5346-12.249-14.6991-22.0489-14.6991-10.0456,0-16.4163,6.3701-16.4163,14.6991,0,10.2907,6.3707,14.4569,21.06981,20.8276l8.57459,3.6749c29.1565,12.4963,45.5728,25.2354,45.5728,53.9007,0,30.8732-24.2557,47.7773-56.8415,47.7773-31.8512,0-52.4325-15.1898-62.4764-35.0365"/></g></g></svg>