<svg xmlns="http://www.w3.org/2000/svg" viewBox="0 0 330.49554 365"><defs><style>.cls-1{fill:#c63d14;}.cls-2{fill:#fff;}</style></defs><title>Jest</title><g id="Layer_2" data-name="Layer 2"><g id="Layer_1-2" data-name="Layer 1"><path class="cls-1" d="M309.804,179.7108a33.97373,33.97373,0,0,0-33.9739-33.9739,34.31665,34.31665,0,0,0-3.5709.1872L318.92244,8.2972H120.61994l46.5973,137.5081c-.683-.0413-1.3698-.0684-2.0643-.0684a33.97712,33.97712,0,0,0-10.3151,66.3496,148.39169,148.39169,0,0,1-26.7146,33.6201,136.03676,136.03676,0,0,1-47.6069,29.5522C59.77265,264.603,49.97655,240.9028,58.816,220.1242c.998-2.3457,2.0166-4.7251,2.9913-7.0927a33.98177,33.98177,0,1,0-27.2478-5.2621c-8.4096,19.1468-20.7696,39.183-24.6206,62.4055-4.6154,27.8327-.0142,57.3758,24.0564,74.0594,56.06029,38.8539,116.91279-24.0862,181.07409-39.9086,23.2522-5.7346,48.7765-4.8103,69.2633-16.6758a58.00624,58.00624,0,0,0,28.4059-40.2559,60.4705,60.4705,0,0,0-10.8354-45.9067A33.832,33.832,0,0,0,309.804,179.7108Zm-110.6798.1201.0039-.1201a33.95568,33.95568,0,0,0-16.3776-29.0668l37.0877-74.9954,37.1524,75.7906a33.93763,33.93763,0,0,0-15.1357,28.2716c0,.2479.0142.4919.0194.7384Z"/><path class="cls-2" d="M318.10064,179.7108a42.33212,42.33212,0,0,0-34.4542-41.534L330.49554,0H109.04544l46.92,138.457a42.25033,42.25033,0,0,0-13.09969,77.1513,141.63018,141.63018,0,0,1-20.43781,24.0629A128.10641,128.10641,0,0,1,81.236,266.1315c-15.03109-9.4423-21.38539-27.2478-14.78579-42.7604l.5164-1.2136q.4842-1.13865.9696-2.2825a42.29925,42.29925,0,1,0-43.5338-9.8309c-1.411,3.008-2.8944,6.0651-4.4191,9.1971-7.1159,14.6153-15.1808,31.1815-18.2314,49.5769-6.0587,36.5339,3.7129,65.7389,27.515,82.2353A74.96766,74.96766,0,0,0,73.13764,365c27.7939-.0013,55.908-13.9634,83.4062-27.6222,19.8052-9.8361,40.283-20.0079,60.5117-24.9963,7.5265-1.8564,15.27121-2.9731,23.4704-4.1557,16.25881-2.3458,33.0727-4.7703,47.9657-13.3954a66.35557,66.35557,0,0,0,32.4208-46.0164,68.499,68.499,0,0,0-9.00469-47.0994A42.01523,42.01523,0,0,0,318.10064,179.7108Zm-16.5945,0a25.6773,25.6773,0,1,1-25.6779-25.6767A25.70686,25.70686,0,0,1,301.50614,179.7108Zm5.8405-163.1163-41.37,122.0161a41.75428,41.75428,0,0,0-5.23889,1.6241L219.86994,56.8646l-40.9866,82.8769a41.74279,41.74279,0,0,0-5.46359-1.4846l-41.228-121.6624ZM165.15224,154.0341a25.67735,25.67735,0,1,1-25.6767,25.6767A25.7055,25.7055,0,0,1,165.15224,154.0341Zm-111.09549.244a25.6773,25.6773,0,1,1-25.6767,25.6767A25.70574,25.70574,0,0,1,54.05675,154.2781Zm250.50519,91.6971a49.796,49.796,0,0,1-24.38819,34.4941c-12.11861,7.0192-26.64111,9.1145-42.01691,11.3311-8.2365,1.1878-16.7545,2.4168-25.075,4.4695-22.0012,5.4247-43.3117,16.0096-63.9199,26.2459-41.2409,20.4843-76.8583,38.1736-110.441,14.8982-24.6-17.0489-23.4639-48.5945-20.5979-65.881,2.6556-16.0148,9.8361-30.7645,16.7804-45.0287,1.2019-2.4684,2.369-4.8864,3.5141-7.289a41.90248,41.90248,0,0,0,10.9244,2.7421c-7.0682,23.3296,4.0486,48.6952,27.3808,60.6821l3.19259,1.6409,3.38241-1.2046a143.77291,143.77291,0,0,0,50.51809-31.3338,157.44434,157.44434,0,0,0,25.0066-30.2339,42.25075,42.25075,0,0,0,34.4155-73.3544L219.804,94.4326l26.836,54.7448a42.241,42.241,0,0,0,53.29371,65.2302A51.58,51.58,0,0,1,304.56194,245.9752Z"/></g></g></svg>