<svg xmlns="http://www.w3.org/2000/svg" viewBox="0 0 365 186.4018"><defs><style>.cls-1{fill:#eb7077;}.cls-2{fill:#f6a2ad;}</style></defs><title>Materialize</title><g id="Layer_2" data-name="Layer 2"><g id="Layer_1-2" data-name="Layer 1"><path class="cls-1" d="M90.0885,5.6386A12.45378,12.45378,0,0,1,95.5942.1769a17.5377,17.5377,0,0,1,3.0391-.088h49.85939a16.51016,16.51016,0,0,0-3.8319,4.1843,67.11839,67.11839,0,0,0-5.8581,13.5219c-4.4926,14.0946-7.6198,28.5855-10.659,43.0765-1.3654,6.5627-2.6868,13.1696-3.92,19.7323-3.7879,21.4942-7.7079,42.9443-12.597,64.2182-2.3344,9.8222-4.7129,19.6443-8.3246,29.1141-1.6737,3.92-3.3034,8.1043-6.5187,11.0114-.7488.6606-1.4976,1.4975-2.5546,1.3654H50.1833c-2.9951-.0881-5.9461.1762-8.9412-.1322a17.47572,17.47572,0,0,0,4.889-5.5937c3.3034-6.2985,5.3736-13.1256,7.3556-19.9086,3.0832-10.9232,5.5498-21.9786,7.8842-33.0341,1.4535-7.2674,3.1712-14.4909,4.2283-21.8025,1.1892-8.1483,2.9951-16.2087,4.4486-24.313,2.2904-11.9363,4.7129-23.8726,7.3996-35.7209,2.1583-9.2495,4.3605-18.455,7.3116-27.4843A69.66411,69.66411,0,0,1,90.0885,5.6386Z"/><path class="cls-1" d="M90.0885,5.6386l.0576.0339A12.38876,12.38876,0,0,1,95.6205.2384L95.5942.1769l.0114.0659a8.76075,8.76075,0,0,1,1.508-.1091c.5046,0,1.0111.022,1.5197.022h49.85939V.0889l-.0433-.051a16.57409,16.57409,0,0,0-3.8465,4.2018l.0579.0335-.0571-.0349a67.1823,67.1823,0,0,0-5.8643,13.5353l-.00039.0012c-4.49391,14.0987-7.62151,28.5918-10.6607,43.083-1.3655,6.5632-2.687,13.1705-3.9203,19.7338-3.788,21.4946-7.7079,42.9436-12.5965,64.2155-2.3342,9.8216-4.7121,19.6407-8.3219,29.1053l.0625.0238-.0615-.0263c-1.6739,3.9219-3.3021,8.0958-6.5021,10.9881-.6987.6192-1.386,1.365-2.2886,1.3619l-.213-.0133-.0038-.0005H50.1833v.0669l.002-.0669c-.4729-.0139-.9445-.0191-1.4152-.0191-1.3341,0-2.6607.0412-3.9879.0412a34.41964,34.41964,0,0,1-3.5333-.1539l-.0068.0665.041.0528a17.54175,17.54175,0,0,0,4.9074-5.6157c3.3071-6.3058,5.3781-13.1373,7.3604-19.9206,3.084-10.9263,5.5508-21.9832,7.8854-33.0391,1.4533-7.2666,3.1714-14.4912,4.2291-21.8067,1.1887-8.145,2.9943-16.2046,4.4482-24.3108,2.2901-11.9351,4.7125-23.8707,7.399-35.7179,2.1581-9.2489,4.36-18.4525,7.3099-27.4784a69.60242,69.60242,0,0,1,5.324-12.6726l-.058-.0332-.0581-.0332a69.73553,69.73553,0,0,0-5.3349,12.6971c-2.9522,9.0332-5.1549,18.2405-7.3132,27.4903-2.6871,11.8497-5.1097,23.7867-7.4002,35.7235-1.4532,8.1032-3.2593,16.1642-4.4491,24.316-1.0564,7.3076-2.7739,14.5299-4.2277,21.799-2.3342,11.0542-4.8004,22.1082-7.8829,33.029-1.9817,6.7821-4.0509,13.6047-7.3505,19.8957a17.41077,17.41077,0,0,1-4.8709,5.572l-.1314.1022.1656.0171a34.56806,34.56806,0,0,0,3.547.1545c1.3299,0,2.6566-.0411,3.9879-.0411.4697,0,.94.0052,1.4112.0191H94.2288v-.0668l-.0082.0663.2293.0143c.9824-.0032,1.6861-.7885,2.3777-1.3959,3.2312-2.9224,4.8624-7.1171,6.536-11.0352l.0003-.0007.0007-.0018c3.6137-9.475,5.9927-19.3001,8.3271-29.1224,4.8896-21.2764,8.8098-42.7277,12.5978-64.2221,1.233-6.5615,2.5543-13.1679,3.9197-19.7303,3.039-14.4906,6.16589-28.9793,10.65719-43.0698l-.0637-.0203.06331.0215A67.06251,67.06251,0,0,1,144.71779,4.308l.0007-.0011.0001-.0002A16.44861,16.44861,0,0,1,148.536.1398l.13879-.1178H98.6333C98.1286.022,97.6221,0,97.1136,0a8.88035,8.88035,0,0,0-1.5309.1111l-.0078.0013-.0071.0031a12.51738,12.51738,0,0,0-5.5369,5.4892Z"/><path class="cls-2" d="M148.49269.0889c1.27731,0,2.5547-.0441,3.832,0a14.62351,14.62351,0,0,1,6.5187,6.827,85.51823,85.51823,0,0,1,4.5367,10.4828c4.4045,13.6101,7.3996,27.6165,10.3947,41.5789q3.8319,18.76335,7.2675,37.6589c.1762.6606-.044,1.5856.8369,1.7618-3.1713,16.561-6.2985,33.1662-10.2626,49.5951a217.76791,217.76791,0,0,1-7.708,26.2071c-1.7618,4.2724-3.5677,8.9412-7.3115,11.9803-2.3785.5286-4.0962-1.2773-5.5497-2.907-2.5106-3.2153-4.0522-7.0032-5.5498-10.7911-4.9771-13.566-8.0162-27.7046-11.0994-41.7991-2.3344-10.9673-4.40459-22.0227-6.56279-33.0341-.969-5.5938-2.2904-11.0994-3.0391-16.6932-.1322-.0881-.4405-.2643-.5726-.3524,1.2332-6.5627,2.5546-13.1696,3.92-19.7323,3.03919-14.491,6.16639-28.9819,10.659-43.0765a67.11839,67.11839,0,0,1,5.8581-13.5219A16.51016,16.51016,0,0,1,148.49269.0889Z"/><path class="cls-2" d="M148.49269.0889V.1557c.8526,0,1.7041-.0196,2.5547-.0196.4252,0,.8502.0049,1.2749.0196l.0024-.0668-.0314.059a14.5571,14.5571,0,0,1,6.4891,6.7953l.0008.0019.001.0019a85.44579,85.44579,0,0,1,4.5331,10.4747l.0628-.023-.0636.0206c4.4031,13.6057,7.3979,27.6099,10.3929,41.5723q3.8316,18.7617,7.2671,37.6568l.00051.0028.00069.0025c.08531.3166.0746.7125.1536,1.0603a.88234.88234,0,0,0,.73471.7498l.01319-.0655-.0657-.0126c-3.1713,16.5612-6.2983,33.1653-10.2619,49.592a217.70293,217.70293,0,0,1-7.7055,26.1989c-1.761,4.2723-3.5653,8.9288-7.2912,11.9523l.0422.0519-.0145-.0653a3.774,3.774,0,0,1-.8213.0922c-1.9154.0027-3.38729-1.5449-4.6641-2.9784l-.0498.0445.05261-.0411c-2.50311-3.2055-4.04291-6.987-5.54021-10.7746-4.9745-13.5586-8.0131-27.6941-11.0963-41.7888-2.3341-10.9659-4.40419-22.0209-6.56249-33.0327l-.0656.0129.0659-.0114c-.9696-5.5966-2.2907-11.1015-3.0388-16.6907l-.004-.03-.0251-.0168c-.136-.0905-.4443-.2667-.5726-.3523l-.0371.0556.0657.0124c1.2331-6.5623,2.5544-13.1687,3.9198-19.7311,3.039-14.4906,6.16589-28.9793,10.65719-43.0698l-.0637-.0203.06331.0215A67.06251,67.06251,0,0,1,144.71779,4.308l.0007-.0011.0001-.0002A16.44861,16.44861,0,0,1,148.536.1398l-.04331-.0509v0l-.0433-.051a16.57409,16.57409,0,0,0-3.8465,4.2018l.0579.0335-.0571-.0349a67.1823,67.1823,0,0,0-5.8643,13.5353l-.00039.0012c-4.49391,14.0987-7.62151,28.5918-10.6607,43.083-1.3655,6.5632-2.687,13.1705-3.9203,19.7338l-.0082.0434.0368.0245c.1359.0906.4442.2667.5726.3524l.0371-.0556-.0663.0088c.7495,5.5983,2.0711,11.1048,3.0396,16.6958l.0001.0007.0001.0007c2.1582,11.011,4.22829,22.0668,6.563,33.0352,3.08321,14.0947,6.1228,28.2363,11.102,41.8082,1.4985,3.7897,3.0418,7.5841,5.5598,10.8093l.00141.0017.00139.0016c1.2781,1.431,2.7695,3.0204,4.7639,3.0231a3.90551,3.90551,0,0,0,.8503-.0954l.01541-.0034.01219-.0099c3.76181-3.0548,5.5693-7.7359,7.3312-12.0068a217.80594,217.80594,0,0,0,7.7111-26.2167c3.9647-16.4313,7.092-33.0375,10.2633-49.5984l.0125-.0651-.065-.013a.74621.74621,0,0,1-.6307-.6486c-.0751-.3239-.0638-.7208-.1547-1.0649l-.0646.0173.0658-.012q-3.43575-18.89625-7.2678-37.6603c-2.99529-13.963-5.9907-27.9717-10.3966-41.5861l-.0006-.0018-.0002-.0006a85.57736,85.57736,0,0,0-4.5403-10.4909l-.0592.0311.061-.0273A14.69048,14.69048,0,0,0,152.356.0298l-.01361-.0072L152.327.022c-.42691-.0147-.85341-.0196-1.27961-.0196-.8527,0-1.7042.0196-2.5547.0196h-.0246l-.0187.0159Z"/><path class="cls-1" d="M203.59359,7.7087c1.5856-3.0391,3.5236-6.4306,6.9591-7.5758,17.4861-.0881,34.9721-.044,52.4582-.044a23.47668,23.47668,0,0,0-4.4487,5.3295c-3.3915,6.0782-5.3734,12.8172-7.3996,19.4681-5.1974,18.3228-8.8531,37.0421-12.3327,55.7615-3.2153,18.455-6.6508,36.91-10.57089,55.277-2.02611,9.2495-4.14031,18.455-6.827,27.5724a89.81765,89.81765,0,0,1-6.34261,16.5611c-1.36539,2.3785-2.951,4.9772-5.5497,6.2104-16.6932.1322-33.4305,0-50.12369.0441a20.12614,20.12614,0,0,1-2.81891-.1322c3.7438-3.0391,5.5497-7.7079,7.3115-11.9803a217.76791,217.76791,0,0,0,7.708-26.2071c3.9641-16.4289,7.0913-33.0341,10.2626-49.5951,3.8319-21.3621,7.8401-42.7241,12.9493-63.8219C197.207,25.459,199.49739,16.2095,203.59359,7.7087Z"/><path class="cls-1" d="M203.59359,7.7087l.0592.0309c1.5845-3.0391,3.5178-6.4108,6.921-7.5433l-.0211-.0634.00031.0669Q223.66734.13365,236.78179.1447q13.11435,0,26.2291.011V.0889l-.0474-.0473a23.53391,23.53391,0,0,0-4.4603,5.3454l.059.0314-.0584-.0326c-3.3962,6.0871-5.379,12.8308-7.4052,19.4812l-.0003.0012c-5.1984,18.3265-8.8545,37.0478-12.3341,55.7675-3.2154,18.4553-6.6508,36.9095-10.5706,55.2753-2.0259,9.2488-4.1398,18.4527-6.8258,27.5675a89.7474,89.7474,0,0,1-6.3373,16.5483c-1.36349,2.3766-2.9448,4.961-5.51949,6.1817l.02869.0604-.0006-.0669q-8.8899.07035-17.793.0605c-8.1878,0-16.3787-.026-24.5625-.026q-3.88515-.00015-7.7678.0096a20.08288,20.08288,0,0,1-2.8093-.1315l-.0094.0662.0421.0519c3.76181-3.0548,5.5693-7.7359,7.3312-12.0068a217.80594,217.80594,0,0,0,7.7111-26.2167c3.9647-16.4313,7.092-33.0375,10.2633-49.5984,3.832-21.3624,7.84-42.7232,12.9486-63.8186,2.3783-9.1169,4.6681-18.3621,8.7604-26.8545l-.0602-.029.0592.0309-.0592-.0309-.0603-.029c-4.1001,8.5092-6.3911,17.763-8.7695,26.8798-5.1101,21.1012-9.1184,42.4645-12.9505,63.827-3.1711,16.5604-6.2981,33.1645-10.2617,49.5912a217.70293,217.70293,0,0,1-7.7055,26.1989c-1.761,4.2723-3.5653,8.9288-7.2912,11.9523l-.1187.0963.1514.0218a20.20166,20.20166,0,0,0,2.82841.1328q3.88243-.0105,7.76759-.0097c8.1835,0,16.37441.026,24.5625.026q8.9013,0,17.7941-.0604l.01481-.0001.01339-.0063c2.62261-1.2458,4.21261-3.8588,5.579-6.2375a89.87252,89.87252,0,0,0,6.3485-16.5749c2.6877-9.1206,4.8022-18.3277,6.8284-27.5777,3.9204-18.3684,7.3561-36.8242,10.5715-55.2798,3.4794-18.7182,7.1347-37.4354,12.3311-55.7547l-.0643-.0182.064.0194c2.0261-6.6513,4.0073-13.3855,7.394-19.455l.0007-.0012a23.42238,23.42238,0,0,1,4.4368-5.3136l.1141-.1141h-.1613q-13.11465,0-26.2291-.011-13.11465,0-26.2294.0551h-.0109l-.0099.0034c-3.4678,1.1579-5.41059,4.5691-6.9973,7.6083l-.0009.0016-.0001.0003Z"/><path class="cls-2" d="M263.01089.0889c1.4094,0,2.8629-.0441,4.2724,0a15.81582,15.81582,0,0,1,5.3735,5.2854c2.3784,3.7879,3.876,8.0603,5.4176,12.2446a353.34216,353.34216,0,0,1,8.8971,34.3114C290.319,67.4784,293.226,83.1145,296.089,98.7506c.70469,3.7439,1.40939,7.5318,1.84989,11.3197.1762.1762.5285.5286.6607.6607-1.5857,2.2023-2.2023,4.845-3.0832,7.3556a208.50533,208.50533,0,0,0-6.1223,27.3963,147.65216,147.65216,0,0,1-5.0653,21.362c-1.6737,5.1533-3.69979,10.2626-7.0472,14.579a15.7088,15.7088,0,0,1-6.1224,4.7129c-3.6557.3964-5.814-3.1273-7.5758-5.7259-3.6557-6.3866-5.6378-13.522-7.752-20.4812-6.9591-25.7665-11.4958-52.1497-16.3849-78.3568a1.15849,1.15849,0,0,0-.6166-.9249c3.4796-18.7194,7.1353-37.4387,12.3327-55.7615,2.0262-6.6509,4.0081-13.3899,7.3996-19.4681A23.47668,23.47668,0,0,1,263.01089.0889Z"/><path class="cls-2" d="M263.01089.0889V.1557c.9405,0,1.8996-.0196,2.8514-.0196.4759,0,.9499.0049,1.4188.0196l.0022-.0668-.0308.0593a15.75284,15.75284,0,0,1,5.3496,5.2645l.0547-.0384-.0566.0356c2.3732,3.7793,3.8697,8.0471,5.4114,12.2321l.0628-.0231-.0636.0207a353.32634,353.32634,0,0,1,8.8954,34.3049c3.3472,15.5467,6.2541,31.1821,9.117,46.8182.70481,3.744,1.4092,7.5304,1.8492,11.3153l.0027.0231.0164.0165.6608.6607.0473-.0473-.0543-.0391c-1.5954,2.2169-2.21229,4.8669-3.092,7.3725l-.0008.0023a208.5723,208.5723,0,0,0-6.1244,27.4051,147.59837,147.59837,0,0,1-5.0629,21.3525c-1.6728,5.1506-3.6967,10.2523-7.0365,14.5586a15.64312,15.64312,0,0,1-6.0966,4.6927l.0271.0612-.00719-.0666a5.12328,5.12328,0,0,1-.55381.0303c-3.2684.0053-5.2889-3.2585-6.9595-5.7272l-.0553.0376.058-.0333c-3.65039-6.3768-5.6317-13.507-7.746-20.4673l-.064.0194.06461-.0174c-6.95811-25.7625-11.49471-52.144-16.38381-78.3516l-.0657.0122.06651-.0074a1.22557,1.22557,0,0,0-.65321-.9773l-.0299.0598.0658.0122c3.4795-18.719,7.1348-37.4362,12.3312-55.7555l-.0643-.0182.064.0194c2.0261-6.6513,4.0073-13.3855,7.394-19.455l.0007-.0012a23.42238,23.42238,0,0,1,4.4368-5.3136l-.0472-.0472v0l-.0474-.0473a23.53391,23.53391,0,0,0-4.4603,5.3454l.059.0314-.0584-.0326c-3.3962,6.0871-5.379,12.8308-7.4052,19.4812l-.0003.0012c-5.1984,18.3265-8.8545,37.0478-12.3341,55.7675l-.0093.0495.04511.0225a1.09222,1.09222,0,0,1,.58009.8726l.0001.0019.0006.003c4.8889,26.2064,9.4258,52.5913,16.3861,78.3619l.0002.0009.0004.0011c2.114,6.9581,4.0967,14.0986,7.7579,20.495l.0009.0016.0018.0026c1.6686,2.4569,3.69991,5.7806,7.0701,5.7859a5.25973,5.25973,0,0,0,.5682-.031l.0102-.0011.0098-.0043a15.77566,15.77566,0,0,0,6.1482-4.7332c3.3549-4.3263,5.3832-9.4432,7.0578-14.5991A147.71963,147.71963,0,0,0,289.46,145.4937a208.44463,208.44463,0,0,1,6.12019-27.3873l-.0638-.0198.063.0221c.8821-2.5156,1.4985-5.1509,3.0744-7.3386l.0333-.0463-.0403-.0401c-.1321-.1322-.4845-.4845-.6607-.6607l-.0472.0473.0663-.0077c-.4407-3.791-1.1458-7.5804-1.8505-11.3244-2.8629-15.6359-5.7701-31.2727-9.1178-46.8219a353.44005,353.44005,0,0,0-8.899-34.3181l-.0004-.0014-.0004-.001c-1.5414-4.1836-3.04-8.4605-5.4237-12.257l-.0012-.002-.0007-.0009A15.87769,15.87769,0,0,0,267.314.0295l-.01351-.007-.0151-.0005c-.4709-.0147-.9463-.0196-1.4231-.0196-.9536,0-1.9128.0196-2.8514.0196H262.983l-.01951.0196Z"/><path class="cls-2" d="M.0156,100.2922c1.1452-.0881,2.2903-.2643,3.4796-.2643H51.5047c2.0261.2643,4.1402.0881,6.0783.9691a17.3182,17.3182,0,0,1,7.1793,5.5056c.2203-.1321.6167-.4845.8369-.6607-1.0571,7.3116-2.7748,14.5351-4.2283,21.8025-2.3344,11.0555-4.801,22.1109-7.8842,33.0341-1.982,6.783-4.0522,13.6101-7.3556,19.9086a17.47572,17.47572,0,0,1-4.889,5.5937c-.7488.1322-1.3214-.3964-1.938-.7928-2.0701-1.3213-3.2594-3.6117-4.5367-5.6819-6.0342-13.7421-6.6949-28.9378-10.4387-43.2966a100.93737,100.93737,0,0,0-7.664-20.9216,38.79458,38.79458,0,0,0-8.1043-10.7911A21.992,21.992,0,0,0,.0156,100.2922Z"/><path class="cls-2" d="M.0156,100.2922l.0051.0667c1.1486-.0885,2.2919-.2642,3.4745-.2641H51.5047v-.0669l-.0087.0663c2.0362.2644,4.1422.0909,6.0593.9636l.0013.0006.0012.0005a17.25168,17.25168,0,0,1,7.1514,5.4843l.0362.0475.0513-.0307c.2311-.1393.6255-.4912.8443-.6659l-.0418-.0522-.0662-.0095c-1.0564,7.3075-2.7739,14.5298-4.2277,21.7989-2.3342,11.0542-4.8004,22.1082-7.8829,33.029-1.9817,6.7821-4.0509,13.6047-7.3505,19.8957a17.41077,17.41077,0,0,1-4.8709,5.572l.0411.0528-.0116-.0659-.2227.0197a3.3503,3.3503,0,0,1-1.6676-.8029c-2.0504-1.3075-3.2373-3.5869-4.5159-5.6607l-.0569.0351.0612-.0269c-6.0283-13.7266-6.6898-28.9183-10.4353-43.2866A101.00548,101.00548,0,0,0,16.724,115.457a38.86389,38.86389,0,0,0-8.119-10.81l-.0017-.0016-.0009-.0007a22.0579,22.0579,0,0,0-8.5713-4.4175l-.0155.065.0051.0667-.0051-.0667L0,100.3573a21.924,21.924,0,0,1,8.5184,4.3915l.042-.052-.0446.0497a38.73291,38.73291,0,0,1,8.0899,10.7728,100.87285,100.87285,0,0,1,7.6583,20.9072c3.7422,14.3491,4.4021,29.5488,10.4422,43.3065l.0019.0043.0024.0039c1.2761,2.0665,2.4676,4.3679,4.5576,5.7031a3.43771,3.43771,0,0,0,1.7397.8239l.2459-.0216.0164-.0029.013-.0101a17.54175,17.54175,0,0,0,4.9074-5.6157c3.3071-6.3058,5.3781-13.1373,7.3604-19.9206,3.084-10.9263,5.5508-21.9832,7.8854-33.0391,1.4533-7.2666,3.1714-14.4912,4.2291-21.8067l.0241-.1675-.1321.1057c-.2216.1777-.6201.5306-.8295.6556l.0344.0573.0532-.0406a17.38636,17.38636,0,0,0-7.2074-5.527l-.0251.062.0276-.0609c-1.9589-.8891-4.0813-.7102-6.0973-.9745l-.004-.0005H3.4952c-1.1959.0001-2.343.1768-3.4848.2645L0,100.3573Z"/><path class="cls-1" d="M302.47559,104.873A14.367,14.367,0,0,1,313.575,99.9399h36.11729c5.0212.088,10.0863-.1762,15.1075.1321-1.4975,1.0131-3.3034,1.4095-4.889,2.2463a29.18867,29.18867,0,0,0-13.2136,11.9363c-4.801,8.3687-6.4747,17.9706-7.8841,27.3963-1.4095,9.2495-1.3655,18.8074-4.3606,27.7926-2.026,6.2986-5.1092,12.6411-10.4387,16.7814-16.5611.1762-33.1222.044-49.6393.0881a15.59152,15.59152,0,0,1-3.2153-.1762,15.7088,15.7088,0,0,0,6.1224-4.7129c3.34741-4.3164,5.3735-9.4257,7.0472-14.579a147.65216,147.65216,0,0,0,5.0653-21.362,208.50533,208.50533,0,0,1,6.1223-27.3963c.8809-2.5106,1.4975-5.1533,3.0832-7.3556C299.92089,108.793,300.80189,106.5467,302.47559,104.873Z"/><path class="cls-1" d="M302.47559,104.873l.0499.0443a14.38856,14.38856,0,0,1,10.5324-4.9215q.2568,0,.5142.0109h36.1202q1.18575.02085,2.37671.019c2.249,0,4.50329-.0413,6.75489-.0413,1.9944,0,3.9868.0324,5.9718.1543l.0041-.0667-.0375-.0554c-1.4829,1.0044-3.2858,1.4009-4.8827,2.2426l.0312.0591-.02779-.0608a29.25616,29.25616,0,0,0-13.24391,11.9639c-4.8084,8.3823-6.4823,17.993-7.8922,27.4196-1.41,9.2564-1.3668,18.8101-4.3578,27.7814-2.0242,6.2933-5.1033,12.6227-10.4164,16.7497l.0411.0528-.00079-.0669c-7.172.0763-14.34411.0947-21.51271.0947q-10.0944,0-20.1767-.0164-3.97635,0-7.9493.0098c-.3149,0-.6259.0035-.9339.0035a11.02055,11.02055,0,0,1-2.2675-.1783l-.0137.0655.0272.061a15.77566,15.77566,0,0,0,6.1482-4.7332c3.3549-4.3263,5.3832-9.4432,7.0578-14.5991A147.71963,147.71963,0,0,0,289.46,145.4937a208.44463,208.44463,0,0,1,6.12019-27.3873l-.0638-.0198.063.0221c.8821-2.5156,1.4985-5.1509,3.0744-7.3386,1.3273-1.9485,2.2076-4.1899,3.869-5.8499l.0007-.0007.002-.0022-.0499-.0443-.0473-.0473c-1.6861,1.6874-2.5676,3.9386-3.884,5.8676-1.5944,2.2155-2.21129,4.8655-3.091,7.3711l-.0008.0023a208.5723,208.5723,0,0,0-6.1244,27.4051,147.59837,147.59837,0,0,1-5.0629,21.3525c-1.6728,5.1506-3.6967,10.2523-7.0365,14.5586a15.64312,15.64312,0,0,1-6.0966,4.6927l-.1893.0841.2028.0425a11.13958,11.13958,0,0,0,2.2948.1811c.309,0,.62-.0035.9341-.0035q3.9729-.0108,7.9491-.0098,10.08045,0,20.1767.0164c7.1688,0,14.3414-.0184,21.5142-.0947l.02251-.0003.01779-.0138c5.346-4.1536,8.43321-10.5092,10.4614-16.8136,2.9989-8.9986,2.954-18.5606,4.3629-27.803,1.4091-9.4251,3.0827-19.0182,7.8761-27.3731a29.12181,29.12181,0,0,1,13.1833-11.9088l.0018-.0008.00171-.0009c1.57429-.832,3.38309-1.2283,4.89529-2.25L365,100.0173l-.19611-.0121c-1.989-.1221-3.9841-.1545-5.98-.1545-2.2533,0-4.5075.0413-6.75489.0413q-1.18937,0-2.37561-.019H313.575v.0669l.00279-.0668q-.26025-.0111-.5199-.011a14.5211,14.5211,0,0,0-10.6323,4.9665l.05.0444-.0473-.0473Z"/></g></g></svg>