<svg xmlns="http://www.w3.org/2000/svg" viewBox="0 0 365.00002 273.72819"><defs><style>.cls-1{fill:#cd6799;}</style></defs><title>Sass</title><g id="Layer_2" data-name="Layer 2"><g id="Layer_1-2" data-name="Layer 1"><path class="cls-1" d="M314.2936,157.35561a75.57035,75.57035,0,0,0-33.0677,7.6669c-3.4001-6.7335-6.8002-12.7337-7.4002-17.1338-.66669-5.1335-1.46669-8.2669-.66669-14.4004s4.40009-14.8672,4.33349-15.5338-.8001-3.8002-8.1336-3.8668-13.6671,1.4-14.4005,3.3334a80.4495,80.4495,0,0,0-3.0667,10.867c-1.26669,6.6669-14.6671,30.4676-22.334,42.9346-2.4668-4.8668-4.6002-9.1336-5.0669-12.5337-.6666-5.1335-1.4667-8.2669-.6666-14.4004s4.4001-14.8671,4.3334-15.5338-.8-3.8001-8.13359-3.8668-13.667,1.4-14.40041,3.3334-1.5334,6.4669-3.0668,10.867-19.3339,44.1347-24.0007,54.4016c-2.40009,5.2669-4.4668,9.467-5.9335,12.3337a3.04329,3.04329,0,0,1-.2667.5334c-1.2667,2.4667-2,3.8001-2,3.8001v.0667c-1,1.8-2.0668,3.4668-2.6001,3.4668-.4,0-1.1334-4.8002.1333-11.3337,2.6668-13.8004,9.0003-35.2677,8.9337-36.0011,0-.4,1.2-4.1335-4.1335-6.0668-5.2002-1.9334-7.0669,1.2667-7.5336,1.2667s-.8,1.1333-.8,1.1333,5.8002-24.134-11.067-24.134c-10.53369,0-25.0674,11.5336-32.2676,21.934-4.5335,2.4667-14.2005,7.7335-24.53409,13.4004-3.93341,2.2-8.00021,4.4001-11.80041,6.4668-.26659-.2666-.5333-.6-.8-.8667-20.40059-21.8006-58.13509-37.2011-56.535-66.4686.6-10.667,4.2668-38.6678,72.46879-72.6689,56.1351-27.6675,100.8031-20.0006,108.5367-3.0001,11.067,24.2674-23.93409,69.3355-81.9358,75.869-22.134,2.4667-33.7344-6.0669-36.6678-9.267-3.0668-3.3334-3.5334-3.5334-4.6668-2.8667-1.86669,1-.66669,4.0001,0,5.7335,1.7334,4.5335,8.8669,12.5337,20.934,16.4672,10.6669,3.4667,36.6011,5.4001,68.002-6.7336,35.1344-13.6004,62.6019-51.4015,54.535-83.0691C220.4908,1.351,167.1558-9.24939,116.6876,8.68451c-30.0009,10.667-62.5352,27.4675-85.93589,49.3348-27.8008,26.0008-32.2009,48.6015-30.4009,58.0684,6.4669,33.601,52.80159,55.4684,71.33549,71.6689-.9334.5333-1.8001,1-2.5334,1.4-9.267,4.6001-44.60139,23.0674-53.40159,42.6013-10.0003,22.134,1.6,38.0011,9.2669,40.1345,23.80069,6.6002,48.26809-5.2668,61.40189-24.8674s11.5337-45.068,5.4668-56.735a1.39277,1.39277,0,0,0-.2667-.4c2.4001-1.4001,4.86681-2.8668,7.2669-4.2668,4.7335-2.8001,9.4003-5.4002,13.4004-7.5336-2.2667,6.2002-3.9334,13.6004-4.73349,24.2674-1,12.5337,4.13349,28.8009,10.867,35.2011,3.00009,2.8001,6.53359,2.8667,8.80029,2.8667,7.8669,0,11.4003-6.5335,15.3338-14.2671,4.8001-9.4669,9.1336-20.4673,9.1336-20.4673s-5.4002,29.7343,9.2669,29.7343c5.3335,0,10.7337-6.9336,13.1338-10.467v.0666s.1333-.2.4-.6666c.5333-.8667.8667-1.4001.8667-1.4001v-.1333c2.1334-3.7335,6.9335-12.2004,14.0671-26.2675,9.2002-18.1339,18.0672-40.8012,18.0672-40.8012a115.86245,115.86245,0,0,0,3.5334,14.7338c1.6001,5.4001,4.9335,11.3336,7.60021,17.0671-2.13341,3.0001-3.46671,4.6668-3.46671,4.6668l.0666.0667c-1.7334,2.2667-3.6001,4.7335-5.6668,7.1336-7.2669,8.6669-15.9338,18.6005-17.1339,21.4673-1.4,3.4001-1.0667,5.8668,1.6001,7.8669,1.9334,1.4667,5.4001,1.6667,8.9336,1.4667a41.02252,41.02252,0,0,0,13.4004-3.0668,44.97355,44.97355,0,0,0,11.53371-6.0668c7.13349-5.2668,11.467-12.8004,11.067-22.734-.2-5.4669-2.00011-10.9337-4.20021-16.0672.6667-.9333,1.2667-1.8667,1.9334-2.8001a305.39512,305.39512,0,0,0,20.0006-34.5344,115.87218,115.87218,0,0,0,3.5335,14.7338c1.3333,4.6669,4.06671,9.7337,6.4668,14.6672-10.6003,8.6002-17.1338,18.6005-19.4672,25.134-4.2002,12.1338-.9334,17.6006,5.2668,18.8673,2.8001.6,6.8002-.7334,9.7336-2.0001a44.33652,44.33652,0,0,0,12.33371-6.3335c7.13359-5.2668,14.00039-12.6004,13.60039-22.534a42.59952,42.59952,0,0,0-3.0667-13.3337c9.0002-3.7335,20.6006-5.8002,35.401-4.0668,31.73431,3.7334,38.0012,23.534,36.8011,31.8676s-7.8669,12.867-10.0669,14.2671-2.9335,1.8667-2.7334,2.8667c.2667,1.4667,1.3334,1.4001,3.2001,1.1334,2.6001-.4667,16.6671-6.7336,17.2672-22.0673C365.9618,178.55631,347.2946,157.15561,314.2936,157.35561ZM69.4862,239.89141c-10.5336,11.4671-25.2007,15.8005-31.53419,12.1337-6.8003-3.9334-4.13351-20.8672,8.80019-33.0009,7.8669-7.4003,18.0006-14.2671,24.7341-18.4673,1.5334-.9333,3.8001-2.2667,6.5335-3.9334.4667-.2667.7334-.4.7334-.4q.79995-.5001,1.6-1.0001C85.0867,212.55731,80.5532,227.82441,69.4862,239.89141Zm76.669-52.1348c-3.6668,8.9336-11.3337,31.8009-16.0005,30.5342-4.0001-1.0667-6.4668-18.4006-.8-35.5344,2.8667-8.6002,8.9336-18.8672,12.467-22.8674,5.7335-6.4001,12.0671-8.5335,13.6004-5.9334C157.3555,157.35561,148.4219,182.15641,146.1552,187.75661Zm63.2686,30.2675c-1.5334.8001-3.0001,1.3334-3.66679.9334-.46671-.2667.66669-1.3334.66669-1.3334s7.9335-8.5336,11.067-12.4004c1.8-2.2667,3.9334-4.9334,6.2002-7.9335v.8667C223.6909,208.35721,213.8239,215.224,209.4238,218.02411Zm48.8014-11.1336c-1.1334-.8001-.9333-3.4668,2.86681-11.8004a44.41859,44.41859,0,0,1,10.86689-14.0004,18.87122,18.87122,0,0,1,1.0667,6.1335C272.959,200.09031,263.7587,204.89041,258.2252,206.89051Z"/></g></g></svg>